<?xml version="1.0" encoding="utf-8"?>
<!-- Generator: Adobe Illustrator 24.1.1, SVG Export Plug-In . SVG Version: 6.00 Build 0)  -->
<svg version="1.1" id="Livello_1" xmlns="http://www.w3.org/2000/svg" xmlns:xlink="http://www.w3.org/1999/xlink" x="0px" y="0px"
	 viewBox="0 0 202.66 80" style="enable-background:new 0 0 202.66 80;" xml:space="preserve">
<style type="text/css">
	.st0{fill:#E73C68;}
	.st1{fill:none;stroke:#E73C68;stroke-width:3;stroke-miterlimit:10;}
</style>
<g>
	<g>
		<path class="st0" d="M97,60.31c0,1.68-0.46,3.51-1.37,5.49c-0.73,1.59-1.64,3.09-2.73,4.49c-0.97,1.2-1.69,1.91-2.15,2.11
			c-0.23,0.09-0.49,0.14-0.79,0.14c-0.68,0-1.45-0.22-2.31-0.65c-0.77-0.36-1.35-0.74-1.74-1.16V54.07c0.05-0.4,0.28-0.64,0.69-0.72
			c0.05-0.02,0.43,0.04,1.16,0.16c0.14,0.02,0.6-0.15,1.38-0.49c0.78-0.34,1.45-0.51,2-0.51c0.68,0,1.33,0.18,1.94,0.53
			c0.35,0.22,0.89,0.63,1.6,1.25c1.03,0.9,1.7,1.84,2.01,2.82C96.9,57.78,97,58.85,97,60.31z M93.16,55.85
			c-0.08-0.05-0.2-0.07-0.37-0.07c-0.82,0-1.8,0.36-2.94,1.06v10.42c1.05-0.6,1.94-2.08,2.69-4.42c0.63-2.02,0.95-3.86,0.95-5.51
			C93.49,56.46,93.38,55.97,93.16,55.85z"/>
		<path class="st0" d="M109.13,69c-0.05,0.26-0.18,0.54-0.41,0.85c-0.22,0.3-0.42,0.48-0.59,0.54c-0.05,0.02-0.13-0.01-0.25-0.08
			c-0.12-0.07-0.22-0.1-0.3-0.1c-0.03,0-0.06,0.01-0.09,0.02c-0.48,0.14-0.96,0.32-1.44,0.56c-1.14,0.52-2.19,1.2-3.15,2.01
			c-1.54-0.63-2.38-0.98-2.52-1.04c-0.96-0.42-1.44-0.73-1.44-0.93V53.42c0-0.11,0.18-0.26,0.54-0.46c0.36-0.2,0.63-0.29,0.8-0.28
			c0.19,0.02,0.56,0.14,1.11,0.36c0.56,0.22,1.01,0.34,1.37,0.34c0.46,0,1.07-0.21,1.81-0.62c0.68-0.4,1.1-0.57,1.27-0.51
			c0.37,0.12,0.92,0.53,1.65,1.22s1.13,1.18,1.19,1.47c0.03,0.14-0.11,0.38-0.43,0.72c-0.32,0.34-0.58,0.51-0.78,0.51
			c-0.17,0-0.29-0.02-0.37-0.07c-0.08-0.05-0.13-0.06-0.16-0.05c-0.56,0.12-1.07,0.27-1.55,0.44c-1.14,0.39-1.98,0.83-2.52,1.34
			v3.77c0.54-0.28,1.24-0.56,2.11-0.86c0.25-0.03,0.77,0.31,1.56,1.03c0.8,0.72,1.19,1.22,1.19,1.49c0,0.17-0.11,0.37-0.32,0.6
			c-0.22,0.23-0.42,0.38-0.63,0.44c-0.15,0-0.42,0.02-0.81,0.05c-0.59,0.11-1.62,0.6-3.1,1.48v2.43c0.46-0.28,1.09-0.61,1.89-0.98
			c0.79-0.38,1.28-0.57,1.47-0.57c0.22,0,0.76,0.34,1.63,1.01C108.74,68.38,109.16,68.81,109.13,69z"/>
		<path class="st0" d="M121.03,68.86c-0.19,0.73-0.48,1.17-0.88,1.32c-0.12,0.05-0.29,0.05-0.5,0.02c-0.21-0.03-0.36-0.02-0.45,0.02
			l-3.43,1.44c-0.11,0.05-0.22,0.18-0.34,0.39c-0.12,0.22-0.23,0.34-0.34,0.37c-0.34,0.12-1.06,0.01-2.15-0.35
			c-1.1-0.35-1.76-0.69-1.99-1c-0.17-0.25-0.22-0.63-0.16-1.16c0.03-0.25,0.05-0.44,0.05-0.58V53.79c-0.03-0.15-0.09-0.29-0.19-0.39
			c-0.09-0.11-0.14-0.2-0.14-0.28c0.03-0.29,0.3-0.51,0.81-0.65c0.32-0.08,1.03,0.04,2.11,0.35c1.22,0.36,1.84,0.77,1.85,1.25
			c0,0.12-0.09,0.31-0.25,0.56c-0.17,0.25-0.25,0.43-0.25,0.56v12.8l2.41-1.04c0.14-0.12,0.4-0.26,0.79-0.42
			c0.22-0.03,0.8,0.3,1.74,0.98C120.65,68.19,121.09,68.64,121.03,68.86z"/>
		<path class="st0" d="M126.4,53.72c0,0.11-0.03,0.25-0.1,0.44c-0.07,0.18-0.11,0.3-0.13,0.35c-0.09,0.31-0.19,0.79-0.28,1.44v14.21
			c0,0.19,0.05,0.35,0.14,0.5c0.09,0.15,0.14,0.27,0.14,0.36c0,0.99-0.19,1.52-0.56,1.6c-0.14,0.03-0.68-0.07-1.62-0.3
			c-0.99-0.25-1.56-0.44-1.71-0.58c-0.34-0.29-0.51-0.56-0.51-0.81c0-0.06,0.03-0.13,0.09-0.21c0.06-0.08,0.09-0.21,0.09-0.39V54
			c0-0.09-0.03-0.19-0.08-0.29c-0.05-0.1-0.08-0.2-0.08-0.29c0.03-0.37,0.32-0.62,0.86-0.74c0.17-0.03,0.52-0.03,1.06,0
			c0.66,0.05,1.22,0.13,1.67,0.25C126.06,53.12,126.4,53.38,126.4,53.72z"/>
		<path class="st0" d="M141.68,54.18c-0.8,2.05-1.71,5.17-2.73,9.35c-0.93,3.78-1.38,5.93-1.37,6.43c-0.02,0.05,0,0.4,0.05,1.07
			c0.03,0.36-0.02,0.68-0.16,0.97c-0.15,0.37-0.36,0.58-0.62,0.63c-0.45,0.09-1.35-0.08-2.7-0.51c-1.35-0.43-2.13-0.81-2.33-1.13
			c-0.09-0.15-0.15-0.36-0.16-0.6c-0.02-0.31-0.04-0.52-0.07-0.63c-1.76-5.57-2.82-10.56-3.17-14.98c0-0.08-0.04-0.24-0.12-0.49
			c-0.05-0.19-0.06-0.35-0.05-0.49c0.08-0.54,0.3-0.87,0.67-1c0.19-0.06,0.83,0.08,1.94,0.44c1.17,0.37,1.82,0.69,1.94,0.95
			c0.06,0.15,0.06,0.48,0,0.97c-0.02,0.09-0.07,0.23-0.16,0.41c-0.09,0.18-0.13,0.33-0.12,0.45c0.23,1.62,0.45,3.05,0.65,4.28
			c0.49,2.96,0.88,4.72,1.16,5.28c0.26-1.44,0.73-3.27,1.39-5.51c0.66-2.24,1.13-4.1,1.39-5.6c0.01-0.29,0.08-0.69,0.21-1.18
			c0.17-0.37,0.42-0.61,0.76-0.72c0.25-0.08,0.83,0.05,1.74,0.39C140.81,53.36,141.43,53.76,141.68,54.18z"/>
		<path class="st0" d="M153.67,69c-0.05,0.26-0.18,0.54-0.4,0.85c-0.22,0.3-0.42,0.48-0.59,0.54c-0.05,0.02-0.13-0.01-0.25-0.08
			c-0.12-0.07-0.22-0.1-0.3-0.1c-0.03,0-0.06,0.01-0.09,0.02c-0.48,0.14-0.96,0.32-1.44,0.56c-1.14,0.52-2.19,1.2-3.15,2.01
			c-1.54-0.63-2.38-0.98-2.52-1.04c-0.96-0.42-1.44-0.73-1.44-0.93V53.42c0-0.11,0.18-0.26,0.54-0.46c0.36-0.2,0.63-0.29,0.8-0.28
			c0.19,0.02,0.56,0.14,1.11,0.36c0.56,0.22,1.01,0.34,1.37,0.34c0.46,0,1.06-0.21,1.8-0.62c0.68-0.4,1.1-0.57,1.27-0.51
			c0.37,0.12,0.92,0.53,1.66,1.22c0.73,0.69,1.13,1.18,1.19,1.47c0.03,0.14-0.11,0.38-0.43,0.72c-0.32,0.34-0.58,0.51-0.78,0.51
			c-0.17,0-0.29-0.02-0.37-0.07c-0.08-0.05-0.13-0.06-0.16-0.05c-0.56,0.12-1.07,0.27-1.55,0.44c-1.14,0.39-1.98,0.83-2.52,1.34
			v3.77c0.54-0.28,1.24-0.56,2.11-0.86c0.25-0.03,0.77,0.31,1.56,1.03c0.79,0.72,1.19,1.22,1.19,1.49c0,0.17-0.11,0.37-0.32,0.6
			c-0.22,0.23-0.42,0.38-0.63,0.44c-0.15,0-0.42,0.02-0.81,0.05c-0.59,0.11-1.62,0.6-3.1,1.48v2.43c0.46-0.28,1.09-0.61,1.89-0.98
			s1.28-0.57,1.47-0.57c0.22,0,0.76,0.34,1.63,1.01C153.28,68.38,153.7,68.81,153.67,69z"/>
		<path class="st0" d="M166.77,63.23c0.03,0.23,0.05,0.46,0.05,0.69c0,1.28-0.55,2.66-1.64,4.14c-0.88,1.19-1.96,2.25-3.24,3.19
			c-1.17,0.85-1.97,1.24-2.38,1.18c-0.46-0.06-1.28-0.41-2.45-1.03c-1.17-0.63-1.81-1.05-1.9-1.28c-0.03-0.06-0.05-0.13-0.05-0.21
			c0-0.09,0.03-0.21,0.08-0.36c0.05-0.15,0.08-0.26,0.08-0.34v-15c0-0.25,0.34-0.37,1.02-0.37c0.31,0,0.58,0.03,0.81,0.09
			c0.73-0.46,1.64-0.88,2.74-1.24c1.1-0.36,2.05-0.54,2.84-0.54c0.46,0,0.82,0.07,1.08,0.2c0.25,0.13,0.49,0.36,0.71,0.68
			c0.28,0.45,0.47,0.73,0.58,0.83c0.03,0.03,0.29,0.24,0.76,0.63c0.28,0.23,0.45,0.48,0.53,0.74c0.06,0.19,0.09,0.39,0.09,0.6
			c0,1.22-0.81,2.55-2.43,3.98C165.69,61.08,166.6,62.21,166.77,63.23z M162.72,55.71c-0.03-0.06-0.12-0.09-0.25-0.09
			c-0.36,0-0.91,0.19-1.67,0.56c-0.76,0.37-1.27,0.73-1.53,1.06v2.41c0.99-0.79,1.84-1.59,2.56-2.41
			C162.54,56.42,162.84,55.91,162.72,55.71z M163.55,62.56c-0.4,0.02-1.08,0.21-2.04,0.58c-1.03,0.42-1.78,0.83-2.25,1.23v4.31
			c1-0.28,1.99-1.13,2.96-2.55C163.2,64.71,163.64,63.52,163.55,62.56z"/>
		<path class="st0" d="M176.68,72.26c-0.32,0.03-0.69-0.01-1.09-0.13c-0.4-0.12-0.8-0.24-1.18-0.36c-0.46-0.12-1.19-0.35-2.18-0.67
			c-1.23-0.54-2.17-1.6-2.8-3.19c-0.56-1.4-0.83-3.1-0.83-5.09c0-1.62,0.28-3.51,0.83-5.67c0.76-2.9,1.74-4.35,2.94-4.35
			c0.11,0,0.26,0.03,0.45,0.08c0.19,0.05,0.34,0.09,0.45,0.1c1.14-0.32,1.87-0.49,2.2-0.49c0.15,0,0.31,0.01,0.46,0.02
			c1.85,0.23,3.31,1.39,4.37,3.47c0.96,1.88,1.44,4.13,1.44,6.74c0,2.47-0.43,4.59-1.3,6.37C179.52,71.02,178.27,72.07,176.68,72.26
			z M176.26,55.29c-0.34-0.09-0.68,0.36-1.01,1.37c-0.33,1-0.67,1.5-1.01,1.5c-0.08,0-0.19-0.04-0.34-0.13
			c-0.15-0.08-0.27-0.13-0.36-0.15c-0.53,1.16-0.79,2.81-0.79,4.95c0,1.68,0.18,3.12,0.53,4.33c0.4,1.34,0.96,2.08,1.67,2.22
			c0.83,0.15,1.5-0.7,2.01-2.57c0.45-1.64,0.67-3.58,0.67-5.83c0-1.53-0.12-2.81-0.35-3.84C177.05,56.03,176.71,55.42,176.26,55.29z
			"/>
		<path class="st0" d="M191.26,72.26c-0.32,0.03-0.69-0.01-1.09-0.13c-0.4-0.12-0.8-0.24-1.18-0.36c-0.46-0.12-1.19-0.35-2.18-0.67
			c-1.23-0.54-2.17-1.6-2.8-3.19c-0.56-1.4-0.83-3.1-0.83-5.09c0-1.62,0.28-3.51,0.83-5.67c0.76-2.9,1.74-4.35,2.94-4.35
			c0.11,0,0.26,0.03,0.45,0.08c0.19,0.05,0.34,0.09,0.45,0.1c1.14-0.32,1.87-0.49,2.2-0.49c0.15,0,0.31,0.01,0.46,0.02
			c1.85,0.23,3.31,1.39,4.37,3.47c0.96,1.88,1.44,4.13,1.44,6.74c0,2.47-0.43,4.59-1.3,6.37C194.11,71.02,192.85,72.07,191.26,72.26
			z M190.84,55.29c-0.34-0.09-0.68,0.36-1.01,1.37c-0.33,1-0.67,1.5-1.01,1.5c-0.08,0-0.19-0.04-0.34-0.13
			c-0.15-0.08-0.27-0.13-0.36-0.15c-0.53,1.16-0.79,2.81-0.79,4.95c0,1.68,0.18,3.12,0.53,4.33c0.4,1.34,0.96,2.08,1.67,2.22
			c0.83,0.15,1.5-0.7,2.01-2.57c0.45-1.64,0.67-3.58,0.67-5.83c0-1.53-0.12-2.81-0.35-3.84C191.64,56.03,191.29,55.42,190.84,55.29z
			"/>
	</g>
	<path class="st1" d="M22.93,46.98c0,0-22.55-5.08-15.09-26.2c0,0,5.72-13.02,21.28-8.42c0,0,16.99-21.5,40.34-0.99
		c0,0,19.37-2.67,22.87,15.28c0,0,2.22,16.36-16.83,20.33v20.8c0,0,1.91,10-24.3,9.69c0,0-28.58,1.11-28.43-9.21L22.93,46.98z"/>
	<path class="st0" d="M47.56,38.33c0,0-7.9-1.86-5.74-12.08c0,0,0.97-5.74,4.1-8.95c0,0,2.83-3.58,6.63,0c0,0,3.65,3.48,4.17,9.72
		c0,0,1.86,9.37-5.96,11.31c0,0-0.67,5.96,0.07,13.64c0,0,0.75,7.83,1.04,15.65c0,0,0.79,4.77-2.7,4.77c0,0-2.97,0.37-2.67-4.62
		c0,0,0.36-7.7,1-15.5c0.01-0.17,0.03-0.35,0.04-0.52C48.23,43.78,48.01,41.54,47.56,38.33z"/>
	<path class="st0" d="M31.83,48.7c0,0-4.32-3.28-5.89-12c0,0-1.27-4.55-1.12-10.81c0,0,0.07-3.8,1.12-5.59c0,0,2.46-4.62,3.65,0
		c0,0,1.94,6.61,4.32,19.71c0,0,2.5,11.62,3.48,16.66c0.04,0.19,0.07,0.36,0.1,0.53c0.89,4.7,0.75,5.37,2.09,9.54
		c0,0,1.86,3.65-1.64,4.77c0,0-2.76,0.89-3.13-4.32c0,0,0-4.77-0.75-10.36C34.07,56.82,33.58,50.57,31.83,48.7z"/>
	<path class="st0" d="M65.53,40c0,0-2.83-1.96-2.39-5.02c0,0,2.39-13.5,5.07-16.74c0,0-2.89,13.73-3.43,17.11l1.13,0.37
		c0,0,1.27-6.95,4.46-17.03c0,0-1.93,12.24-3.14,17.25l1.32,0.39c0,0,1.87-9.23,4.19-17.09c0,0-1.93,14.28-2.7,17.42l0.94,0.33
		c0,0,1.93-10.2,4.02-17.31c0,0-0.83,15.16-2.54,17.8c0,0-0.55,2.09-3.86,2.92c0,0-1.84,5.46-3.24,15.83l-1.69,12.87
		c0,0-0.59,3.46-3.38,2.79c0,0-2.79-0.59-1.91-4.04c0,0,1.38-5.79,3.4-11.44c0.07-0.18,0.13-0.37,0.2-0.55
		C64.13,50.06,65.14,44.28,65.53,40z"/>
</g>
</svg>
