<svg id="Livello_1" data-name="Livello 1" xmlns="http://www.w3.org/2000/svg" xmlns:xlink="http://www.w3.org/1999/xlink" viewBox="0 0 749.36 246.87"><defs><style>.cls-1{font-size:35.25px;font-family:MarkerFelt-Wide, Marker Felt;}.cls-1,.cls-10{fill:#e83c68;}.cls-2{letter-spacing:0.03em;}.cls-3{letter-spacing:0.03em;}.cls-4{letter-spacing:0.06em;}.cls-5{letter-spacing:0.04em;}.cls-6{letter-spacing:0.03em;}.cls-7{letter-spacing:0.03em;}.cls-8{opacity:0.29;}.cls-9{fill:none;stroke:#e83c68;stroke-miterlimit:10;stroke-width:3px;}</style></defs><text class="cls-1" transform="translate(121.19 106.69)"><tspan class="cls-2">D</tspan><tspan class="cls-3" x="20.2" y="0">E</tspan><tspan x="38.32" y="0">L</tspan><tspan class="cls-4" x="55.24" y="0">I</tspan><tspan class="cls-5" x="65.75" y="0">V</tspan><tspan class="cls-6" x="88.03" y="0">E</tspan><tspan class="cls-7" x="106.08" y="0">B</tspan><tspan x="126.56" y="0">OO</tspan></text><image class="cls-8" width="800" height="800" transform="translate(557.36 54.87) scale(0.24)" xlink:href="../adobe%20illustrator/icona-del-cappello-dello-chef-logo-della-cucina-con-forchetta-cucchiaio-e-coltello-scorta-164542487.jpg"/><path class="cls-9" d="M106.42,243.36s-34.34-7.74-23-39.9c0,0,8.7-19.84,32.41-12.82,0,0,25.87-32.75,61.43-1.5,0,0,29.5-4.06,34.82,23.26,0,0,3.39,24.92-25.63,31v31.69s2.9,15.23-37,14.75c0,0-43.53,1.69-43.29-14Z" transform="translate(-79.64 -174.13)"/><path class="cls-10" d="M143.93,230.2s-12-2.84-8.74-18.39c0,0,1.47-8.74,6.24-13.63,0,0,4.32-5.45,10.11,0A24.4,24.4,0,0,1,157.9,213s2.83,14.27-9.09,17.22a110.55,110.55,0,0,0,.12,20.78s1.13,11.92,1.59,23.84c0,0,1.2,7.27-4.12,7.27,0,0-4.51.56-4.06-7,0,0,.54-11.73,1.52-23.61,0-.27,0-.54.07-.8C145,238.49,144.61,235.08,143.93,230.2Z" transform="translate(-79.64 -174.13)"/><path class="cls-10" d="M120,246s-6.58-5-9-18.28a62.16,62.16,0,0,1-1.71-16.46s.12-5.79,1.71-8.51c0,0,3.74-7,5.56,0,0,0,3,10.07,6.58,30,0,0,3.81,17.7,5.3,25.38.05.28.11.55.15.8,1.37,7.16,1.14,8.18,3.18,14.54,0,0,2.84,5.56-2.5,7.26,0,0-4.2,1.37-4.76-6.58a133.13,133.13,0,0,0-1.14-15.78S122.64,248.84,120,246Z" transform="translate(-79.64 -174.13)"/><path class="cls-10" d="M171.29,232.74s-4.31-3-3.63-7.65c0,0,3.63-20.56,7.72-25.49,0,0-4.4,20.91-5.22,26.06l1.73.57a235.59,235.59,0,0,1,6.79-25.94s-2.93,18.63-4.78,26.27l2,.59s2.85-14.06,6.38-26c0,0-2.93,21.74-4.11,26.52l1.43.51s2.94-15.53,6.13-26.36c0,0-1.26,23.08-3.86,27.11,0,0-.84,3.19-5.88,4.45,0,0-2.8,8.32-4.93,24.11l-2.58,19.6s-.89,5.27-5.15,4.26c0,0-4.25-.9-2.91-6.16,0,0,2.1-8.83,5.19-17.42l.3-.84A97.47,97.47,0,0,0,171.29,232.74Z" transform="translate(-79.64 -174.13)"/></svg>