<svg id="Livello_1" data-name="Livello 1" xmlns="http://www.w3.org/2000/svg" viewBox="0 0 472.93 535.18"><defs><style>.cls-1{fill:#ad4833;}.cls-2{fill:#c75f47;}.cls-3{fill:#de836d;}.cls-4{fill:#cfc4a6;}.cls-5{fill:#f5eee2;}.cls-6{fill:#1d1d1b;}.cls-7{fill:#e96e5c;}.cls-8{fill:#f08f80;}.cls-9{fill:#ed8b75;}.cls-10,.cls-11,.cls-31{fill:none;}.cls-10,.cls-11{stroke:#1d1d1b;}.cls-10,.cls-11,.cls-31,.cls-32{stroke-miterlimit:10;}.cls-10{stroke-width:5px;}.cls-12{fill:#ec8956;}.cls-13{fill:#f3b98a;}.cls-14{fill:#f7d4a9;}.cls-15{fill:#cbc5ac;}.cls-16{fill:#f7d39e;}.cls-17{fill:#fbe5b7;}.cls-18{fill:#eaba91;}.cls-19{fill:#814e1f;}.cls-20{fill:#e2a640;}.cls-21{fill:#b22c2b;}.cls-22{fill:#9e7839;}.cls-23{fill:#5a9a6f;}.cls-24{fill:#e1c188;}.cls-25{fill:#f0ca68;}.cls-26{fill:#fff;}.cls-27{fill:#d889b9;}.cls-28{fill:#da546c;}.cls-29{fill:#fdf0c6;}.cls-30{fill:#f29fa6;}.cls-31,.cls-32{stroke:#000101;}.cls-32{fill:#cd8db7;}</style></defs><path class="cls-1" d="M242,111.58c10.42,17.46-4,15-12.66,12.3a26,26,0,0,0,1.84-14.79c3.47.65,7.08,1.47,10.81,2.49Z" transform="translate(-41.3 -69.5)"/><path class="cls-2" d="M240.2,108.76c.66,1,1.26,1.94,1.78,2.82-3.73-1-7.34-1.84-10.81-2.49a44.29,44.29,0,0,0-4.25-13.44A75.08,75.08,0,0,1,240.2,108.76Z" transform="translate(-41.3 -69.5)"/><path class="cls-3" d="M231.17,109.09a26,26,0,0,1-1.84,14.79c-1-.31-2-.63-2.76-.91a45.69,45.69,0,0,0-.56-14.72C227.7,108.48,229.42,108.77,231.17,109.09Z" transform="translate(-41.3 -69.5)"/><path class="cls-3" d="M226.92,95.65a44.29,44.29,0,0,1,4.25,13.44c-1.75-.32-3.47-.61-5.16-.84a38,38,0,0,0-13-21.92,103.85,103.85,0,0,1,13.9,9.3A0,0,0,0,0,226.92,95.65Z" transform="translate(-41.3 -69.5)"/><path class="cls-1" d="M226,108.25a45.69,45.69,0,0,1,.56,14.72c-1.73-.61-2.85-1.08-2.85-1.08-6.86-4.48-14.32-2-20,1.47,1.43-2.19,5.52-9,4.44-16.33A113.13,113.13,0,0,1,226,108.25Z" transform="translate(-41.3 -69.5)"/><path class="cls-4" d="M223.72,121.89a17.07,17.07,0,0,1,1,10.52h0c-8.38-4.88-22.2,2.51-22.2,2.51C190.91,143.24,167.44,157,167.44,157c-24.65,16.46-52.87,16-52.87,16-33.26,1.28-67.87-18-67.87-18h0a26.9,26.9,0,0,1,2.13-7.89s.81.75,2.42,2a67.87,67.87,0,0,0,6.6,4.31c11.88,6.85,35.33,16.14,69.28,10.48,0,0,.7-.08,2-.28,1.58-.25,4-.69,7.18-1.39h0a137.46,137.46,0,0,0,17.4-5.17c1.65-.61,3.35-1.28,5.08-2a118.56,118.56,0,0,0,15.06-7.57c2.61-1.55,5.21-3.25,7.76-5.11a90.89,90.89,0,0,0,13-11.44s.81-.91,2.21-2.22h0a44,44,0,0,1,6.9-5.31,0,0,0,0,1,0,0C209.4,119.88,216.86,117.41,223.72,121.89Z" transform="translate(-41.3 -69.5)"/><path class="cls-5" d="M173.81,170.46c0,.33-.09,9.65-10,6.92,0,0,3.17,8.13,11.69-1,0,0,8.72-2.4,8.33-12.79C183.81,163.6,177.49,176.78,173.81,170.46ZM204.17,138c.63.39,15.74,9.69,8.37,0C212.54,138,215.35,143.26,204.17,138Zm4.76,13.31c-.77,1.07-9.39,12.94-10.39,2.53C198.54,153.8,197.09,170.72,208.93,151.27Zm-16,16.24c.56.93,13.21,21.81,10.93,3.76C204,173.44,204.21,182.45,192.94,167.51Zm30.38-30.94a10.22,10.22,0,0,1-1.4,13.4,13.61,13.61,0,0,1,.51,10.82c3.35,8-3.86,12.62-3.86,12.62a11.46,11.46,0,0,1-5.67,6.18c-1.29,5.15-8.24,5.15-8.24,5.15-1.55,6.44-11.85,7.47-11.85,7.47-.26,9.28-12.88,6.7-12.88,6.7-2.83,7.21-12.88,6.7-12.88,6.7-8,11.07-17.77,7.21-17.77,7.21-5.93,9.53-18.81,4.09-18.81,4.09-9.79,5.11-16.23-2.14-16.23-2.14-7.72,5.29-11.84-.92-11.84-.92a13.53,13.53,0,0,1-12.88-1.8c-6.44,1.29-11.34-3.35-11.34-3.35-13.65,0-17.77-5.15-17.77-5.15-10-4.9-9.79-12.62-9.79-12.62-5.92-5.93-1.8-14.43-1.8-14.43-6.18-4.38,0-14.17,0-14.17-2-1.84-2.35-4.62-2.13-7.3h0s34.61,19.28,67.87,18c0,0,28.22.46,52.87-16,0,0,23.47-13.79,35.05-22.11,0,0,13.82-7.39,22.2-2.51A17.64,17.64,0,0,1,223.32,136.57Zm-66.16,60.67s4.74-3.42-2.16-8.39c0,0,4.32,12.06-11.42,3C143.58,191.85,146.59,200.91,157.16,197.24Zm-41.09-13.8c4,1.26,2.12-3,2.12-3-4.89-5.49-14.56,1-14.56,1C108.48,180.48,116.07,183.44,116.07,183.44Zm-31.36,2.23s10.5,9,10.36-3.22c0,0-2.1,7.56-10.22.42,0,0-6.31,4.9-8.83-3.08C76,179.79,73.78,190.71,84.71,185.67Zm-24.66-9.95s8.13-.56,12.47,1.82c0,0-7.28-9.1-13.59-5.32C58.93,172.22,55.85,175.72,60.05,175.72Z" transform="translate(-41.3 -69.5)"/><path class="cls-6" d="M212.54,138c7.37,9.7-7.74.4-8.37,0C215.35,143.26,212.54,138,212.54,138Z" transform="translate(-41.3 -69.5)"/><path class="cls-2" d="M213,86.33a38,38,0,0,1,13,21.92A113.13,113.13,0,0,0,208.18,107a15.54,15.54,0,0,0-.64-2.7,17.84,17.84,0,0,0-3.41-5.86c2.34-.35,4.86-.61,7.57-.75a94.08,94.08,0,0,0-9.6-1.6l-.43-.48c-.95-1.07-4.83-5.31-13.14-10.32a91.82,91.82,0,0,0-17.38-8,116.27,116.27,0,0,0-20-5.22c26.89-.81,47.33,6.16,61.8,14.24Z" transform="translate(-41.3 -69.5)"/><path class="cls-3" d="M208.18,107c1.08,7.33-3,14.14-4.44,16.33a0,0,0,0,0,0,0,44,44,0,0,0-6.9,5.31c4.3-10.27,5-17,4.55-21.35Q204.64,107.07,208.18,107Z" transform="translate(-41.3 -69.5)"/><path class="cls-3" d="M207.54,104.33a15.54,15.54,0,0,1,.64,2.7q-3.54,0-6.8.3c-.58-5.18-2.9-6.86-2.9-6.86-.22-.25-.46-.51-.71-.75,1.95-.48,4.07-.91,6.36-1.25A17.84,17.84,0,0,1,207.54,104.33Z" transform="translate(-41.3 -69.5)"/><path class="cls-7" d="M211.7,97.72c-2.71.14-5.23.4-7.57.75-.61-.75-1.29-1.52-2-2.35A94.08,94.08,0,0,1,211.7,97.72Z" transform="translate(-41.3 -69.5)"/><path class="cls-6" d="M203.87,171.27c2.28,18-10.37-2.83-10.93-3.76C204.21,182.45,204,173.44,203.87,171.27Z" transform="translate(-41.3 -69.5)"/><path class="cls-8" d="M202.1,96.12c.74.83,1.42,1.6,2,2.35-2.29.34-4.41.77-6.36,1.25a32.82,32.82,0,0,0-5-4.08A74.66,74.66,0,0,1,202.1,96.12Z" transform="translate(-41.3 -69.5)"/><path class="cls-3" d="M201.67,95.64l.43.48a74.66,74.66,0,0,0-9.36-.48A91.69,91.69,0,0,0,178.68,88C156,76.26,129.89,74.5,129.28,74.46a183.82,183.82,0,0,1,19.22-2.28c.9-.05,1.78-.08,2.66-.11h0a116.27,116.27,0,0,1,20,5.22,91.82,91.82,0,0,1,17.38,8C196.84,90.33,200.72,94.57,201.67,95.64Z" transform="translate(-41.3 -69.5)"/><path class="cls-1" d="M201.38,107.33c.48,4.32-.25,11.08-4.55,21.35h0c-1.4,1.31-2.21,2.22-2.21,2.22a90.89,90.89,0,0,1-13,11.44,81.3,81.3,0,0,0,3.69-20.49c.33-6.84-.45-9.39-1.32-11.2,0-.08-.08-.17-.13-.25A91.53,91.53,0,0,1,201.38,107.33Z" transform="translate(-41.3 -69.5)"/><path class="cls-6" d="M198.54,153.8c1,10.41,9.62-1.46,10.39-2.53C197.09,170.72,198.54,153.8,198.54,153.8Z" transform="translate(-41.3 -69.5)"/><path class="cls-2" d="M198.48,100.47s2.32,1.68,2.9,6.86a91.53,91.53,0,0,0-17.57,3.08,14.85,14.85,0,0,0-2.87-4c3.3-1.66,4.83-2.45,6.7-3.27a62.16,62.16,0,0,1,10.13-3.42C198,100,198.26,100.22,198.48,100.47Z" transform="translate(-41.3 -69.5)"/><path class="cls-7" d="M197.77,99.72a62.16,62.16,0,0,0-10.13,3.42c-1.87.82-3.4,1.61-6.7,3.27a41.14,41.14,0,0,0-7.13-5.35c-.9-.58-1.76-1.09-2.61-1.57,2-.67,4-1.3,5.75-1.77a61.27,61.27,0,0,1,15.79-2.08A32.82,32.82,0,0,1,197.77,99.72Z" transform="translate(-41.3 -69.5)"/><path class="cls-2" d="M178.68,88a91.69,91.69,0,0,1,14.06,7.64A61.27,61.27,0,0,0,177,97.72c-1.73.47-3.73,1.1-5.75,1.77A81,81,0,0,0,161.14,95a143,143,0,0,0-13.6-4.63,128,128,0,0,0-28.8-4.79,125.66,125.66,0,0,0-33.29,2.85c13.85-7.7,30.93-11.81,43.82-14h0C129.89,74.5,156,76.26,178.68,88Z" transform="translate(-41.3 -69.5)"/><path class="cls-3" d="M183.94,110.66c.87,1.81,1.65,4.36,1.32,11.2a81.3,81.3,0,0,1-3.69,20.49c-2.55,1.86-5.15,3.56-7.76,5.11,1.62-6.76,3.73-20,3.73-20,2-6.73,1.14-11.51-.61-14.83,2-.77,4.32-1.55,6.88-2.26C183.86,110.49,183.9,110.58,183.94,110.66Z" transform="translate(-41.3 -69.5)"/><path class="cls-6" d="M183.81,163.6c.39,10.39-8.33,12.79-8.33,12.79-8.52,9.12-11.69,1-11.69,1,9.93,2.73,10-6.59,10-6.92C177.49,176.78,183.81,163.6,183.81,163.6Z" transform="translate(-41.3 -69.5)"/><path class="cls-3" d="M180.94,106.41a14.85,14.85,0,0,1,2.87,4c-2.56.71-4.86,1.49-6.88,2.26a14.46,14.46,0,0,0-2.26-3.16C177.34,108.21,179.35,107.2,180.94,106.41Z" transform="translate(-41.3 -69.5)"/><path class="cls-8" d="M173.81,101.06a41.14,41.14,0,0,1,7.13,5.35c-1.59.79-3.6,1.8-6.27,3.1a14.71,14.71,0,0,0-5.44-3.69,36.91,36.91,0,0,0-6.91-3.27c1.39-.5,2.8-1,4.23-1.49s3.07-1,4.65-1.57C172.05,100,172.91,100.48,173.81,101.06Z" transform="translate(-41.3 -69.5)"/><path class="cls-1" d="M176.93,112.67c1.75,3.32,2.58,8.1.61,14.83,0,0-2.11,13.2-3.73,20A118.56,118.56,0,0,1,158.75,155c2.9-17.2-.75-25.66-4.13-29.67A115.16,115.16,0,0,0,166,118.12,51.25,51.25,0,0,1,176.93,112.67Z" transform="translate(-41.3 -69.5)"/><path class="cls-2" d="M174.67,109.51a14.46,14.46,0,0,1,2.26,3.16,51.25,51.25,0,0,0-10.9,5.45,115.16,115.16,0,0,1-11.41,7.24,11.65,11.65,0,0,0-4.1-3.27c2.63-1.64,5.77-3.58,10.69-6.09,1.86-1,.77-.35,7.83-3.75C171.2,111.21,173.06,110.3,174.67,109.51Z" transform="translate(-41.3 -69.5)"/><path class="cls-7" d="M174.67,109.51c-1.61.79-3.47,1.7-5.63,2.74-7.06,3.4-6,2.8-7.83,3.75-4.92,2.51-8.06,4.45-10.69,6.09l-.26-.1c-3.59-2.55-11.17-4.73-18.54-6.37l.48-.23c2.15-1,5.47-2.67,11.38-5.6,0,0,8.59-3.61,18.74-7.24a36.91,36.91,0,0,1,6.91,3.27A14.71,14.71,0,0,1,174.67,109.51Z" transform="translate(-41.3 -69.5)"/><path class="cls-3" d="M161.14,95a81,81,0,0,1,10.06,4.49c-1.58.52-3.17,1.06-4.65,1.57s-2.84,1-4.23,1.49a175.36,175.36,0,0,0-17.61-5.35C119.24,89,75.44,95.52,74.65,95.64c1.57-1.19,2.5-1.82,2.5-1.82a67.17,67.17,0,0,1,8.3-5.39,125.66,125.66,0,0,1,33.29-2.85,128,128,0,0,1,28.8,4.79A143,143,0,0,1,161.14,95Z" transform="translate(-41.3 -69.5)"/><path class="cls-3" d="M154.62,125.36c3.38,4,7,12.47,4.13,29.67-1.73.72-3.43,1.39-5.08,2l.9-11.66c.19-8-3-13.23-6.58-16.57C150.15,127.76,152.37,126.61,154.62,125.36Z" transform="translate(-41.3 -69.5)"/><path class="cls-6" d="M155,188.85c6.9,5,2.16,8.39,2.16,8.39-10.57,3.67-13.58-5.39-13.58-5.39C159.32,200.91,155,188.85,155,188.85Z" transform="translate(-41.3 -69.5)"/><path class="cls-2" d="M144.71,97.2a175.36,175.36,0,0,1,17.61,5.35c-10.15,3.63-18.74,7.24-18.74,7.24-5.91,2.93-9.23,4.56-11.38,5.6l-.48.23c-9.44-2.11-18.55-3.33-18.55-3.33-25-5-55.33-1-55.33-1a117.71,117.71,0,0,1,16.8-15.65h0C75.44,95.52,119.24,89,144.71,97.2Z" transform="translate(-41.3 -69.5)"/><path class="cls-1" d="M148,128.8c3.62,3.34,6.77,8.56,6.58,16.57l-.9,11.66a137.46,137.46,0,0,1-17.4,5.17c1.19-16.07-6.42-22-12.57-24.25A134.66,134.66,0,0,0,148,128.8Z" transform="translate(-41.3 -69.5)"/><path class="cls-9" d="M150.52,122.09a11.65,11.65,0,0,1,4.1,3.27c-2.25,1.25-4.47,2.4-6.63,3.44a23.2,23.2,0,0,0-4-2.93C146.35,124.7,148.24,123.51,150.52,122.09Z" transform="translate(-41.3 -69.5)"/><path class="cls-8" d="M150.26,122l.26.1c-2.28,1.42-4.17,2.61-6.5,3.78a23.35,23.35,0,0,0-6.27-2.59c-3-1.5-8.54-2.75-14.68-3.75l4.74-2.1c1.14-.51,2.07-.93,3.91-1.81C139.09,117.26,146.67,119.44,150.26,122Z" transform="translate(-41.3 -69.5)"/><path class="cls-2" d="M144,125.87a23.2,23.2,0,0,1,4,2.93A134.66,134.66,0,0,1,123.7,138a21.28,21.28,0,0,0-7.29-1.3c-6.85-.91-16.87-1.81-25.61-2.52h-.11c-16.13-1.65-38.32-16-38.32-16q.65-.89,1.29-1.74s21.88-.86,40.16,0c0,0,16.05,1,29.25,3.15a50.28,50.28,0,0,1-5.23,2,67.84,67.84,0,0,1-24.29,2.32s1.92.7,4.6,1.6,6.13,2,9.19,2.82c6.57,1.76,13.5,3.61,21.93,2.44a43.35,43.35,0,0,0,11.06-3.22C141.72,127,142.92,126.42,144,125.87Z" transform="translate(-41.3 -69.5)"/><path class="cls-7" d="M144,125.87c-1.1.55-2.3,1.1-3.69,1.65a43.35,43.35,0,0,1-11.06,3.22c-8.43,1.17-15.36-.68-21.93-2.44-3.06-.82-6.51-1.92-9.19-2.82s-4.6-1.6-4.6-1.6a67.84,67.84,0,0,0,24.29-2.32,50.28,50.28,0,0,0,5.23-2c6.14,1,11.67,2.25,14.68,3.75A23.35,23.35,0,0,1,144,125.87Z" transform="translate(-41.3 -69.5)"/><path class="cls-3" d="M90.8,134.13c8.74.71,18.76,1.61,25.61,2.52a21.28,21.28,0,0,1,7.29,1.3c6.15,2.21,13.76,8.18,12.57,24.25h0c-3.13.7-5.6,1.14-7.18,1.39,2.12-19.84-16.13-21-16.13-21-11.86-2.09-40.44-3.74-40.44-3.74C57.74,138,57.84,153.4,57.84,153.4a67.87,67.87,0,0,1-6.6-4.31s1.54-17.61,21.28-16.32c0,0,8.25.55,18.17,1.35Z" transform="translate(-41.3 -69.5)"/><path class="cls-3" d="M113.17,112.29s9.11,1.22,18.55,3.33c-1.84.88-2.77,1.3-3.91,1.81l-4.74,2.1c-13.2-2.14-29.25-3.15-29.25-3.15-18.28-.86-40.16,0-40.16,0,1.36-1.78,2.77-3.48,4.18-5.09C57.84,111.29,88.16,107.33,113.17,112.29Z" transform="translate(-41.3 -69.5)"/><path class="cls-1" d="M113,142.55s18.25,1.21,16.13,21c-1.27.2-2,.28-2,.28-33.95,5.66-57.4-3.63-69.28-10.48,0,0-.1-15.45,14.68-14.59C72.52,138.81,101.1,140.46,113,142.55Z" transform="translate(-41.3 -69.5)"/><path class="cls-6" d="M118.19,180.43s1.89,4.27-2.12,3c0,0-7.59-3-12.44-2C103.63,181.45,113.3,174.94,118.19,180.43Z" transform="translate(-41.3 -69.5)"/><path class="cls-6" d="M95.07,182.45c.14,12.18-10.36,3.22-10.36,3.22-10.93,5-8.69-5.88-8.69-5.88,2.52,8,8.83,3.08,8.83,3.08C93,190,95.07,182.45,95.07,182.45Z" transform="translate(-41.3 -69.5)"/><path class="cls-1" d="M90.69,134.12c-9.92-.8-18.17-1.35-18.17-1.35-19.74-1.29-21.28,16.32-21.28,16.32-1.61-1.2-2.42-2-2.42-2C38,141.73,48,124.73,48,124.73a77.56,77.56,0,0,1,4.33-6.61S74.56,132.47,90.69,134.12Z" transform="translate(-41.3 -69.5)"/><path class="cls-6" d="M72.52,177.54c-4.34-2.38-12.47-1.82-12.47-1.82-4.2,0-1.12-3.5-1.12-3.5C65.24,168.44,72.52,177.54,72.52,177.54Z" transform="translate(-41.3 -69.5)"/><path class="cls-10" d="M74.64,95.64a117.71,117.71,0,0,0-16.8,15.65c-1.41,1.61-2.82,3.31-4.18,5.09q-.64.86-1.29,1.74A77.56,77.56,0,0,0,48,124.73s-10,17,.78,22.41A26.9,26.9,0,0,0,46.69,155c-.22,2.68.18,5.46,2.13,7.3,0,0-6.18,9.79,0,14.17,0,0-4.12,8.5,1.8,14.43,0,0-.26,7.72,9.79,12.62,0,0,4.12,5.15,17.77,5.15,0,0,4.9,4.64,11.34,3.35a13.53,13.53,0,0,0,12.88,1.8s4.12,6.21,11.84.92c0,0,6.44,7.25,16.23,2.14,0,0,12.88,5.44,18.81-4.09,0,0,9.78,3.86,17.77-7.21,0,0,10,.51,12.88-6.7,0,0,12.62,2.58,12.88-6.7,0,0,10.3-1,11.85-7.47,0,0,7,0,8.24-5.15a11.46,11.46,0,0,0,5.67-6.18s7.21-4.64,3.86-12.62a13.61,13.61,0,0,0-.51-10.82,10.22,10.22,0,0,0,1.4-13.4,17.64,17.64,0,0,0,1.37-4.16" transform="translate(-41.3 -69.5)"/><path class="cls-10" d="M129.27,74.46c-12.89,2.16-30,6.27-43.82,14a67.17,67.17,0,0,0-8.3,5.39s-.93.63-2.5,1.82" transform="translate(-41.3 -69.5)"/><path class="cls-10" d="M151.16,72.07c-.88,0-1.76.06-2.66.11a183.82,183.82,0,0,0-19.22,2.28" transform="translate(-41.3 -69.5)"/><path class="cls-10" d="M213,86.31c-14.47-8.08-34.91-15-61.8-14.24" transform="translate(-41.3 -69.5)"/><path class="cls-10" d="M226.91,95.63a103.85,103.85,0,0,0-13.9-9.3" transform="translate(-41.3 -69.5)"/><path class="cls-10" d="M242,111.58c-.52-.88-1.12-1.83-1.78-2.82a75.08,75.08,0,0,0-13.28-13.11" transform="translate(-41.3 -69.5)"/><path class="cls-10" d="M224.7,132.41a17.07,17.07,0,0,0-1-10.52s1.12.47,2.85,1.08c.8.28,1.74.6,2.76.91,8.62,2.65,23.08,5.16,12.66-12.3" transform="translate(-41.3 -69.5)"/><path class="cls-10" d="M136.27,162.21c-3.13.7-5.6,1.14-7.18,1.39-1.27.2-2,.28-2,.28-33.95,5.66-57.4-3.63-69.28-10.48a67.87,67.87,0,0,1-6.6-4.31c-1.61-1.2-2.42-2-2.42-2" transform="translate(-41.3 -69.5)"/><path class="cls-10" d="M196.82,128.69c-1.4,1.31-2.21,2.22-2.21,2.22a90.89,90.89,0,0,1-13,11.44c-2.55,1.86-5.15,3.56-7.76,5.11A118.56,118.56,0,0,1,158.75,155c-1.73.72-3.43,1.39-5.08,2a137.46,137.46,0,0,1-17.4,5.17" transform="translate(-41.3 -69.5)"/><path class="cls-10" d="M203.73,123.37a44,44,0,0,0-6.9,5.31" transform="translate(-41.3 -69.5)"/><path class="cls-10" d="M223.72,121.89c-6.86-4.48-14.32-2-20,1.47" transform="translate(-41.3 -69.5)"/><path class="cls-11" d="M72.52,177.54s-7.28-9.1-13.59-5.32c0,0-3.08,3.5,1.12,3.5C60.05,175.72,68.18,175.16,72.52,177.54Z" transform="translate(-41.3 -69.5)"/><path class="cls-11" d="M103.63,181.45s9.67-6.51,14.56-1c0,0,1.89,4.27-2.12,3C116.07,183.44,108.48,180.48,103.63,181.45Z" transform="translate(-41.3 -69.5)"/><path class="cls-11" d="M76,179.79s-2.24,10.92,8.69,5.88c0,0,10.5,9,10.36-3.22,0,0-2.1,7.56-10.22.42C84.85,182.87,78.54,187.77,76,179.79Z" transform="translate(-41.3 -69.5)"/><path class="cls-11" d="M143.58,191.85s3,9.06,13.58,5.39c0,0,4.74-3.42-2.16-8.39C155,188.85,159.32,200.91,143.58,191.85Z" transform="translate(-41.3 -69.5)"/><line class="cls-10" x1="94.97" y1="92.69" x2="94.97" y2="92.7"/><line class="cls-11" x1="132.51" y1="100.95" x2="132.51" y2="100.94"/><path class="cls-11" d="M173.81,170.46c0,.33-.09,9.65-10,6.92,0,0,3.17,8.13,11.69-1,0,0,8.72-2.4,8.33-12.79C183.81,163.6,177.49,176.78,173.81,170.46Z" transform="translate(-41.3 -69.5)"/><path class="cls-11" d="M203.82,170.84c0,.15,0,.29.05.43.17,2.17.34,11.18-10.93-3.76l0,0" transform="translate(-41.3 -69.5)"/><path class="cls-11" d="M192.94,167.51c.56.93,13.21,21.81,10.93,3.76" transform="translate(-41.3 -69.5)"/><path class="cls-11" d="M208.93,151.27s0,0,0,0l0-.06" transform="translate(-41.3 -69.5)"/><path class="cls-11" d="M198.54,153.8s-1.45,16.92,10.39-2.53C208.16,152.34,199.54,164.21,198.54,153.8Z" transform="translate(-41.3 -69.5)"/><path class="cls-11" d="M204.17,138c.63.39,15.74,9.69,8.37,0C212.54,138,215.35,143.26,204.17,138Z" transform="translate(-41.3 -69.5)"/><path class="cls-11" d="M204.15,138h0" transform="translate(-41.3 -69.5)"/><line class="cls-10" x1="183.39" y1="62.9" x2="183.4" y2="62.9"/><path class="cls-10" d="M74.64,95.64h0" transform="translate(-41.3 -69.5)"/><line class="cls-10" x1="155.53" y1="59.17" x2="155.52" y2="59.18"/><path class="cls-10" d="M129.27,74.46h0" transform="translate(-41.3 -69.5)"/><path class="cls-10" d="M203.74,123.36a0,0,0,0,0,0,0" transform="translate(-41.3 -69.5)"/><path class="cls-10" d="M151.16,72.07h0" transform="translate(-41.3 -69.5)"/><path class="cls-10" d="M213,86.31l0,0" transform="translate(-41.3 -69.5)"/><path class="cls-10" d="M226.91,95.63a0,0,0,0,0,0,0" transform="translate(-41.3 -69.5)"/><line class="cls-10" x1="200.68" y1="42.07" x2="200.69" y2="42.07"/><path class="cls-12" d="M354.85,495c10.41,17.46-4.06,15-12.67,12.3A26,26,0,0,0,344,492.54C347.5,493.19,351.11,494,354.85,495Z" transform="translate(-41.3 -69.5)"/><path class="cls-13" d="M353.06,492.2c.67,1,1.26,1.94,1.79,2.83-3.74-1-7.35-1.84-10.83-2.49a44.14,44.14,0,0,0-4.25-13.46C348.75,486.22,353.06,492.2,353.06,492.2Z" transform="translate(-41.3 -69.5)"/><path class="cls-14" d="M344,492.54a26,26,0,0,1-1.84,14.79c-1-.31-1.95-.62-2.75-.91a45.41,45.41,0,0,0-.58-14.73Q341.39,492.05,344,492.54Z" transform="translate(-41.3 -69.5)"/><path class="cls-14" d="M339.77,479.08A44.14,44.14,0,0,1,344,492.54q-2.64-.5-5.17-.85h0c-3.1-14.78-13-21.93-13-21.93A102.08,102.08,0,0,1,339.77,479.08Z" transform="translate(-41.3 -69.5)"/><path class="cls-12" d="M338.85,491.69a45.41,45.41,0,0,1,.58,14.73c-1.74-.61-2.86-1.08-2.86-1.08-6.86-4.49-14.32-2-20,1.47,1.43-2.2,5.52-9,4.44-16.34a115.37,115.37,0,0,1,17.82,1.21Z" transform="translate(-41.3 -69.5)"/><path class="cls-15" d="M336.57,505.34a17.12,17.12,0,0,1,1,10.51c-8.39-4.89-22.22,2.52-22.22,2.52-11.58,8.32-35,22.11-35,22.11-24.66,16.46-52.87,16-52.87,16-33.27,1.28-67.88-18-67.88-18a27.05,27.05,0,0,1,2.12-7.89s.81.75,2.42,1.95a65.8,65.8,0,0,0,6.61,4.31C182.59,543.7,206,553,240,547.33c0,0,.7-.08,2-.28,1.58-.25,4.05-.68,7.17-1.39a137.73,137.73,0,0,0,17.4-5.18q2.49-.91,5.08-2a120.58,120.58,0,0,0,15.06-7.57c2.6-1.55,5.2-3.25,7.76-5.11a91.58,91.58,0,0,0,13.05-11.45s.81-.91,2.21-2.22h0a44.33,44.33,0,0,1,6.89-5.3h0C322.25,503.33,329.71,500.85,336.57,505.34Z" transform="translate(-41.3 -69.5)"/><path class="cls-5" d="M286.66,553.9c0,.33-.09,9.65-10,6.93,0,0,3.18,8.13,11.7-1,0,0,8.72-2.4,8.32-12.79C296.66,547.05,290.34,560.23,286.66,553.9Zm35.12-19.19c-.77,1.08-9.38,12.95-10.39,2.54C311.39,537.25,309.94,554.17,321.78,534.71ZM317,521.4c.63.39,15.75,9.69,8.38,0C325.4,521.39,328.2,526.7,317,521.4Zm-.31,33.14c.16,1.76.71,11.83-10.91-3.59C306.36,551.89,319.08,572.9,316.71,554.54ZM336.18,520a10.23,10.23,0,0,1-1.41,13.4,13.59,13.59,0,0,1,.51,10.81c3.35,8-3.86,12.63-3.86,12.63a11.47,11.47,0,0,1-5.67,6.18c-1.28,5.15-8.24,5.15-8.24,5.15-1.54,6.44-11.85,7.47-11.85,7.47-.26,9.27-12.88,6.7-12.88,6.7-2.83,7.21-12.88,6.69-12.88,6.69-8,11.08-17.77,7.22-17.77,7.22-5.92,9.53-18.8,4.08-18.8,4.08-9.79,5.12-16.23-2.14-16.23-2.14-7.73,5.3-11.85-.91-11.85-.91a13.53,13.53,0,0,1-12.88-1.81c-6.44,1.29-11.33-3.34-11.33-3.34-13.66,0-17.78-5.16-17.78-5.16-10-4.89-9.79-12.62-9.79-12.62-5.92-5.92-1.8-14.42-1.8-14.42-6.18-4.38,0-14.17,0-14.17-1.95-1.85-2.34-4.63-2.12-7.31,0,0,34.61,19.29,67.88,18,0,0,28.21.46,52.87-16,0,0,23.46-13.79,35-22.11,0,0,13.83-7.41,22.22-2.52A17.89,17.89,0,0,1,336.18,520ZM270,580.69s4.75-3.42-2.15-8.4c0,0,4.31,12.06-11.43,3C256.43,575.3,259.45,584.35,270,580.69Zm-38.5-11.17a5.61,5.61,0,1,0-5.61,5.61A5.61,5.61,0,0,0,231.51,569.52Zm-32-.4s10.5,9,10.36-3.23c0,0-2.1,7.57-10.22.42,0,0-6.31,4.91-8.83-3.08C190.85,563.23,188.61,574.16,199.54,569.12Zm-13.79-8.79a5.61,5.61,0,1,0-5.61,5.61A5.61,5.61,0,0,0,185.75,560.33Z" transform="translate(-41.3 -69.5)"/><path class="cls-6" d="M325.4,521.39c7.37,9.7-7.75.4-8.38,0C328.2,526.7,325.4,521.39,325.4,521.39Z" transform="translate(-41.3 -69.5)"/><path class="cls-13" d="M325.82,469.75s9.93,7.15,13,21.93A115.37,115.37,0,0,0,321,490.47a15.66,15.66,0,0,0-.64-2.69,17.89,17.89,0,0,0-3.4-5.86c2.34-.35,4.85-.61,7.56-.75a91.07,91.07,0,0,0-9.59-1.59l-.43-.49c-1-1.07-4.83-5.32-13.14-10.32a92,92,0,0,0-17.39-8,116.52,116.52,0,0,0-20-5.21h0C290.91,454.69,311.35,461.66,325.82,469.75Z" transform="translate(-41.3 -69.5)"/><path class="cls-14" d="M321,490.47c1.08,7.34-3,14.14-4.44,16.34h0a44.33,44.33,0,0,0-6.89,5.3c4.31-10.27,5-17,4.55-21.35Q317.5,490.52,321,490.47Z" transform="translate(-41.3 -69.5)"/><path class="cls-14" d="M320.39,487.78a15.66,15.66,0,0,1,.64,2.69q-3.54,0-6.79.3c-.58-5.17-2.9-6.85-2.9-6.85-.23-.26-.47-.51-.72-.76,1.95-.48,4.07-.9,6.37-1.24A17.89,17.89,0,0,1,320.39,487.78Z" transform="translate(-41.3 -69.5)"/><path class="cls-16" d="M324.55,481.17c-2.71.14-5.22.4-7.56.75-.62-.75-1.29-1.51-2-2.34A91.07,91.07,0,0,1,324.55,481.17Z" transform="translate(-41.3 -69.5)"/><path class="cls-6" d="M316.71,554.54c2.37,18.36-10.35-2.65-10.91-3.59C317.42,566.37,316.87,556.3,316.71,554.54Z" transform="translate(-41.3 -69.5)"/><path class="cls-17" d="M315,479.58c.74.83,1.41,1.59,2,2.34-2.3.34-4.42.76-6.37,1.24a35.18,35.18,0,0,0-5-4.09A77,77,0,0,1,315,479.58Z" transform="translate(-41.3 -69.5)"/><path class="cls-14" d="M314.53,479.09l.43.49a77,77,0,0,0-9.36-.51,92.68,92.68,0,0,0-14.06-7.63c-22.92-11.88-49.42-13.53-49.42-13.53h0a184.15,184.15,0,0,1,19.24-2.28c.9-.05,1.78-.08,2.66-.11h0a116.52,116.52,0,0,1,20,5.21,92,92,0,0,1,17.39,8C309.7,473.77,313.57,478,314.53,479.09Z" transform="translate(-41.3 -69.5)"/><path class="cls-12" d="M314.24,490.77c.49,4.32-.24,11.08-4.55,21.35h0c-1.4,1.31-2.21,2.22-2.21,2.22a91.58,91.58,0,0,1-13.05,11.45,81.46,81.46,0,0,0,3.7-20.5c.33-6.84-.46-9.38-1.32-11.2l-.13-.26A92.08,92.08,0,0,1,314.24,490.77Z" transform="translate(-41.3 -69.5)"/><path class="cls-6" d="M311.39,537.25c1,10.41,9.62-1.46,10.39-2.54C309.94,554.17,311.39,537.25,311.39,537.25Z" transform="translate(-41.3 -69.5)"/><path class="cls-18" d="M311.34,483.92s2.32,1.68,2.9,6.85a92.08,92.08,0,0,0-17.57,3.07,15.34,15.34,0,0,0-2.87-4c3.3-1.65,4.83-2.44,6.69-3.26a61.14,61.14,0,0,1,10.13-3.43C310.87,483.41,311.11,483.66,311.34,483.92Z" transform="translate(-41.3 -69.5)"/><path class="cls-16" d="M310.62,483.16a61.14,61.14,0,0,0-10.13,3.43c-1.86.82-3.39,1.61-6.69,3.26a42.26,42.26,0,0,0-7.14-5.34c-.89-.58-1.75-1.1-2.6-1.57,2-.67,4-1.3,5.74-1.77a61.67,61.67,0,0,1,15.8-2.1A35.18,35.18,0,0,1,310.62,483.16Z" transform="translate(-41.3 -69.5)"/><path class="cls-13" d="M291.54,471.44a92.68,92.68,0,0,1,14.06,7.63,61.67,61.67,0,0,0-15.8,2.1c-1.73.47-3.72,1.1-5.74,1.77A80.34,80.34,0,0,0,274,478.45a137.16,137.16,0,0,0-13.59-4.63A126.93,126.93,0,0,0,231.59,469a125.59,125.59,0,0,0-33.28,2.84c13.84-7.7,30.92-11.81,43.81-14h0S268.62,459.56,291.54,471.44Z" transform="translate(-41.3 -69.5)"/><path class="cls-14" d="M296.8,494.1c.86,1.82,1.65,4.36,1.32,11.2a81.46,81.46,0,0,1-3.7,20.5c-2.56,1.86-5.16,3.56-7.76,5.11h0c1.63-6.75,3.74-19.95,3.74-19.95,2-6.73,1.13-11.52-.62-14.84,2-.77,4.32-1.55,6.89-2.27Z" transform="translate(-41.3 -69.5)"/><path class="cls-6" d="M296.66,547.05c.4,10.39-8.32,12.79-8.32,12.79-8.52,9.12-11.7,1-11.7,1,9.93,2.72,10-6.6,10-6.93C290.34,560.23,296.66,547.05,296.66,547.05Z" transform="translate(-41.3 -69.5)"/><path class="cls-14" d="M293.8,489.85a15.34,15.34,0,0,1,2.87,4c-2.57.72-4.87,1.5-6.89,2.27a14.06,14.06,0,0,0-2.26-3.15C290.19,491.65,292.2,490.65,293.8,489.85Z" transform="translate(-41.3 -69.5)"/><path class="cls-17" d="M286.66,484.51a42.26,42.26,0,0,1,7.14,5.34c-1.6.8-3.61,1.8-6.28,3.11a14.74,14.74,0,0,0-5.44-3.7,36.69,36.69,0,0,0-6.89-3.26c1.38-.5,2.8-1,4.22-1.49s3.07-1.05,4.65-1.57C284.91,483.41,285.77,483.93,286.66,484.51Z" transform="translate(-41.3 -69.5)"/><path class="cls-12" d="M289.78,496.11c1.75,3.32,2.59,8.11.62,14.84,0,0-2.11,13.2-3.74,19.95h0a120.58,120.58,0,0,1-15.06,7.57h0c2.9-17.21-.75-25.67-4.12-29.67a113.89,113.89,0,0,0,11.4-7.24A51.25,51.25,0,0,1,289.78,496.11Z" transform="translate(-41.3 -69.5)"/><path class="cls-18" d="M287.52,493a14.06,14.06,0,0,1,2.26,3.15,51.25,51.25,0,0,0-10.9,5.45,113.89,113.89,0,0,1-11.4,7.24,11.88,11.88,0,0,0-4.11-3.26c2.63-1.64,5.77-3.57,10.69-6.09,1.86-1,.78-.35,7.83-3.76Z" transform="translate(-41.3 -69.5)"/><path class="cls-16" d="M287.52,493l-5.63,2.73c-7.05,3.41-6,2.8-7.83,3.76-4.92,2.52-8.06,4.45-10.69,6.09l-.26-.1c-3.59-2.55-11.16-4.73-18.52-6.38l.46-.22c2.16-1,5.48-2.67,11.38-5.6,0,0,8.6-3.61,18.76-7.24a36.69,36.69,0,0,1,6.89,3.26A14.74,14.74,0,0,1,287.52,493Z" transform="translate(-41.3 -69.5)"/><path class="cls-14" d="M274,478.45a80.34,80.34,0,0,1,10.07,4.49c-1.58.52-3.17,1.06-4.65,1.57s-2.84,1-4.22,1.49a175.82,175.82,0,0,0-17.63-5.35c-25.7-8.32-70.06-1.56-70.06-1.56,1.58-1.2,2.51-1.83,2.51-1.83a67.17,67.17,0,0,1,8.3-5.39A125.59,125.59,0,0,1,231.59,469a126.93,126.93,0,0,1,28.81,4.79A137.16,137.16,0,0,1,274,478.45Z" transform="translate(-41.3 -69.5)"/><path class="cls-14" d="M267.48,508.8c3.37,4,7,12.46,4.12,29.67h0q-2.6,1.08-5.08,2l.91-11.66c.19-8-3-13.23-6.58-16.57C263,511.21,265.23,510.06,267.48,508.8Z" transform="translate(-41.3 -69.5)"/><path class="cls-6" d="M267.86,572.29c6.9,5,2.15,8.4,2.15,8.4-10.56,3.66-13.58-5.39-13.58-5.39C272.17,584.35,267.86,572.29,267.86,572.29Z" transform="translate(-41.3 -69.5)"/><path class="cls-13" d="M257.56,480.65A175.82,175.82,0,0,1,275.19,486c-10.16,3.63-18.76,7.24-18.76,7.24-5.9,2.93-9.22,4.56-11.38,5.6l-.46.22c-9.44-2.1-18.56-3.33-18.56-3.33-25-5-55.33-1-55.33-1a117.5,117.5,0,0,1,16.8-15.64S231.86,472.33,257.56,480.65Z" transform="translate(-41.3 -69.5)"/><path class="cls-12" d="M260.85,512.25c3.62,3.34,6.77,8.56,6.58,16.57l-.91,11.66a137.73,137.73,0,0,1-17.4,5.18h0c1.2-16.08-6.42-22-12.57-24.25h0A134,134,0,0,0,260.85,512.25Z" transform="translate(-41.3 -69.5)"/><path class="cls-14" d="M263.37,505.54a11.88,11.88,0,0,1,4.11,3.26c-2.25,1.26-4.47,2.41-6.63,3.45a23.2,23.2,0,0,0-4-2.93C259.21,508.16,261.09,507,263.37,505.54Z" transform="translate(-41.3 -69.5)"/><path class="cls-17" d="M263.11,505.44l.26.1c-2.28,1.42-4.16,2.62-6.49,3.78a23.35,23.35,0,0,0-6.27-2.59c-3-1.5-8.54-2.75-14.69-3.75,1.31-.57,2.85-1.26,4.74-2.11,1.15-.51,2.08-.93,3.93-1.81C252,500.71,259.52,502.89,263.11,505.44Z" transform="translate(-41.3 -69.5)"/><path class="cls-13" d="M256.88,509.32a23.2,23.2,0,0,1,4,2.93,134,134,0,0,1-24.3,9.14h0a21.28,21.28,0,0,0-7.29-1.3c-6.77-.9-16.65-1.79-25.33-2.5-15.94-1.43-38.11-15.65-38.7-16,.42-.59.85-1.16,1.28-1.73,0,0,21.88-.86,40.16,0,0,0,16.05,1,29.25,3.15a50.26,50.26,0,0,1-5.22,2,67.85,67.85,0,0,1-24.29,2.32s1.91.7,4.59,1.6,6.13,2,9.19,2.82c6.58,1.75,13.5,3.6,21.93,2.43A44,44,0,0,0,253.19,511C254.58,510.42,255.78,509.87,256.88,509.32Z" transform="translate(-41.3 -69.5)"/><path class="cls-16" d="M256.88,509.32c-1.1.55-2.3,1.1-3.69,1.65a44,44,0,0,1-11.07,3.21c-8.43,1.17-15.35-.68-21.93-2.43-3.06-.82-6.51-1.92-9.19-2.82s-4.59-1.6-4.59-1.6A67.85,67.85,0,0,0,230.7,505a50.26,50.26,0,0,0,5.22-2c6.15,1,11.67,2.25,14.69,3.75A23.35,23.35,0,0,1,256.88,509.32Z" transform="translate(-41.3 -69.5)"/><path class="cls-14" d="M236.55,521.4c6.15,2.2,13.77,8.17,12.57,24.25h0c-3.12.71-5.59,1.14-7.17,1.39C244.07,527.2,225.81,526,225.81,526c-11.86-2.08-40.44-3.73-40.44-3.73-14.78-.87-14.67,14.58-14.67,14.58a65.8,65.8,0,0,1-6.61-4.31s1.55-17.61,21.28-16.31c0,0,8.46.56,18.56,1.38,8.68.71,18.56,1.6,25.33,2.5A21.28,21.28,0,0,1,236.55,521.4Z" transform="translate(-41.3 -69.5)"/><path class="cls-14" d="M226,495.73s9.12,1.23,18.56,3.33c-1.85.88-2.78,1.3-3.93,1.81-1.89.85-3.43,1.54-4.74,2.11-13.2-2.14-29.25-3.15-29.25-3.15-18.28-.86-40.16,0-40.16,0q2.06-2.68,4.19-5.1S201,490.77,226,495.73Z" transform="translate(-41.3 -69.5)"/><path class="cls-12" d="M225.81,526s18.26,1.21,16.14,21.06c-1.27.2-2,.28-2,.28C206,553,182.59,543.7,170.7,536.84c0,0-.11-15.45,14.67-14.58C185.37,522.26,214,523.91,225.81,526Z" transform="translate(-41.3 -69.5)"/><circle class="cls-6" cx="184.6" cy="500.02" r="5.61"/><path class="cls-6" d="M209.9,565.89c.14,12.19-10.36,3.23-10.36,3.23-10.93,5-8.69-5.89-8.69-5.89,2.52,8,8.83,3.08,8.83,3.08C207.8,573.46,209.9,565.89,209.9,565.89Z" transform="translate(-41.3 -69.5)"/><path class="cls-12" d="M203.93,517.6c-10.1-.82-18.56-1.38-18.56-1.38-19.73-1.3-21.28,16.31-21.28,16.31-1.61-1.2-2.42-1.95-2.42-1.95-10.82-5.41-.77-22.41-.77-22.41a77.56,77.56,0,0,1,4.33-6.61C165.82,502,188,516.17,203.93,517.6Z" transform="translate(-41.3 -69.5)"/><circle class="cls-6" cx="138.84" cy="490.83" r="5.61"/><path class="cls-10" d="M161.67,530.58a27.05,27.05,0,0,0-2.12,7.89c-.22,2.68.17,5.46,2.12,7.31,0,0-6.18,9.79,0,14.17,0,0-4.12,8.5,1.8,14.42,0,0-.25,7.73,9.79,12.62,0,0,4.12,5.16,17.78,5.16,0,0,4.89,4.63,11.33,3.34a13.53,13.53,0,0,0,12.88,1.81s4.12,6.21,11.85.91c0,0,6.44,7.26,16.23,2.14,0,0,12.88,5.45,18.8-4.08,0,0,9.79,3.86,17.77-7.22,0,0,10.05.52,12.88-6.69,0,0,12.62,2.57,12.88-6.7,0,0,10.31-1,11.85-7.47,0,0,7,0,8.24-5.15a11.47,11.47,0,0,0,5.67-6.18s7.21-4.64,3.86-12.63a13.59,13.59,0,0,0-.51-10.81,10.23,10.23,0,0,0,1.41-13.4,17.89,17.89,0,0,0,1.38-4.17,17.12,17.12,0,0,0-1-10.51s1.12.47,2.86,1.08c.8.29,1.73.6,2.75.91,8.61,2.65,23.08,5.16,12.67-12.3-.53-.89-1.12-1.83-1.79-2.83,0,0-4.31-6-13.29-13.12a102.08,102.08,0,0,0-13.95-9.33c-14.47-8.09-34.91-15.06-61.8-14.24-.88,0-1.76.06-2.66.11a184.15,184.15,0,0,0-19.24,2.28c-12.89,2.16-30,6.27-43.81,14a67.17,67.17,0,0,0-8.3,5.39s-.93.63-2.51,1.83a117.5,117.5,0,0,0-16.8,15.64q-2.13,2.41-4.19,5.1c-.43.57-.86,1.14-1.28,1.73a77.56,77.56,0,0,0-4.33,6.61S150.85,525.17,161.67,530.58Z" transform="translate(-41.3 -69.5)"/><path class="cls-10" d="M309.68,512.13c-1.4,1.31-2.21,2.22-2.21,2.22a91.58,91.58,0,0,1-13.05,11.45c-2.56,1.86-5.16,3.56-7.76,5.11a120.58,120.58,0,0,1-15.06,7.57q-2.6,1.08-5.08,2a137.73,137.73,0,0,1-17.4,5.18c-3.12.71-5.59,1.14-7.17,1.39-1.27.2-2,.28-2,.28C206,553,182.59,543.7,170.7,536.84a65.8,65.8,0,0,1-6.61-4.31c-1.61-1.2-2.42-1.95-2.42-1.95" transform="translate(-41.3 -69.5)"/><path class="cls-10" d="M316.58,506.82a44.33,44.33,0,0,0-6.89,5.3" transform="translate(-41.3 -69.5)"/><path class="cls-10" d="M336.57,505.34c-6.86-4.49-14.32-2-20,1.47" transform="translate(-41.3 -69.5)"/><path class="cls-11" d="M190.85,563.23s-2.24,10.93,8.69,5.89c0,0,10.5,9,10.36-3.23,0,0-2.1,7.57-10.22.42C199.68,566.31,193.37,571.22,190.85,563.23Z" transform="translate(-41.3 -69.5)"/><path class="cls-11" d="M256.43,575.3s3,9.05,13.58,5.39c0,0,4.75-3.42-2.15-8.4C267.86,572.29,272.17,584.35,256.43,575.3Z" transform="translate(-41.3 -69.5)"/><line class="cls-11" x1="245.36" y1="484.4" x2="245.36" y2="484.39"/><path class="cls-11" d="M286.66,553.9c0,.33-.09,9.65-10,6.93,0,0,3.18,8.13,11.7-1,0,0,8.72-2.4,8.32-12.79C296.66,547.05,290.34,560.23,286.66,553.9Z" transform="translate(-41.3 -69.5)"/><path class="cls-11" d="M316.68,554.29l0,.25c.16,1.76.71,11.83-10.91-3.59l0,0" transform="translate(-41.3 -69.5)"/><path class="cls-11" d="M305.8,551c.56.94,13.28,21.95,10.91,3.59" transform="translate(-41.3 -69.5)"/><path class="cls-11" d="M321.78,534.71l0,0,0-.06" transform="translate(-41.3 -69.5)"/><path class="cls-11" d="M311.39,537.25s-1.45,16.92,10.39-2.54C321,535.79,312.4,547.66,311.39,537.25Z" transform="translate(-41.3 -69.5)"/><path class="cls-11" d="M317,521.4c.63.39,15.75,9.69,8.38,0C325.4,521.39,328.2,526.7,317,521.4Z" transform="translate(-41.3 -69.5)"/><path class="cls-11" d="M317,521.39h0" transform="translate(-41.3 -69.5)"/><line class="cls-10" x1="268.39" y1="442.62" x2="268.38" y2="442.63"/><path class="cls-10" d="M316.59,506.81h0" transform="translate(-41.3 -69.5)"/><circle class="cls-11" cx="138.84" cy="490.83" r="5.61"/><circle class="cls-11" cx="184.6" cy="500.02" r="5.61"/><path class="cls-19" d="M513.68,194.57a37.5,37.5,0,0,1-.93,9.73c-1.21,6.67-2.21,12-6.46,16.52-.79.84-5.88,6.06-13.27,6.46-4.77.25-6.65-1.71-18.71-6.46l-1.91-.77a87.87,87.87,0,0,0-8.75-3.12c-9.31-2.54-15.92-.79-35.27,2.25l-5.52.85c-7.23,1.13-11.15,1.71-12.94,1.81-1.58.09-3.27.13-5.08.07-1.56-.07-3.19-.17-4.92-.36l-2.52-.33c-7.85-1.21-17.25-4.11-28.06-10.25l-6.06-.85a12,12,0,0,0,2.08-.82,34.24,34.24,0,0,1-10.81-21.22s24.31,20.24,50.66,17.68c0,0,16.73-2.89,35.69-5.14,0,0,27-8.44,35.35-2.77,0,0,10-9.13-3.85-18.44,0,0-19.65-9.67-24.5-15.31.94.87,3.25,1.91,8.14-.77a26.55,26.55,0,0,0,3.61,1.37c7.6,2.34,12,.84,23.68,1.59,6,.39,9,.58,10.88,1.22C505.14,171.24,513,183.35,513.68,194.57Z" transform="translate(-41.3 -69.5)"/><path class="cls-20" d="M474.31,220.82c12.06,4.75,13.94,6.71,18.71,6.46a94.66,94.66,0,0,1-2.35,20c-9.9-4.36-17.38-4.38-22.86-2.69l-1.64-5.65,7.46-13.56-2.28-1.43,1-3.86Z" transform="translate(-41.3 -69.5)"/><path class="cls-21" d="M490.67,247.24c-5.82,26-20.46,45.74-20.46,45.74s-22.87-11-17.65-31.6a32,32,0,0,1,2.57-6.64,21.78,21.78,0,0,1,12.68-10.19C473.29,242.86,480.77,242.88,490.67,247.24Z" transform="translate(-41.3 -69.5)"/><path class="cls-22" d="M472.4,179.41c13.81,9.31,3.85,18.44,3.85,18.44-8.35-5.67-35.35,2.77-35.35,2.77-19,2.25-35.69,5.14-35.69,5.14-26.35,2.56-50.66-17.68-50.66-17.68a34.24,34.24,0,0,0,10.81,21.22,12,12,0,0,1-2.08.82c-8.52,2.39-19.69-5-19.69-5-10.85-9.65-36.08-2.57-36.08-2.57-16.22,3.75-22.14-16.25-22.45-17.41,0,0,0,0,0,0s0,0,0-.07c14.48-29.58,43.2-16.24,43.2-16.24,18.83,8.66,54.12,1.27,54.12,1.27,46.25-12.52,64.93-6.75,64.93-6.75s0,0,0,0a2.89,2.89,0,0,0,.35.48s0,0,0,0a2.09,2.09,0,0,0,.21.23C452.75,169.74,472.4,179.41,472.4,179.41Z" transform="translate(-41.3 -69.5)"/><polygon class="cls-23" points="432.33 155.84 424.87 169.4 422.22 167.69 430.06 154.41 432.33 155.84"/><path class="cls-20" d="M472.4,220.05l-1,3.86-7.83,13.29,2.65,1.7,1.64,5.65a21.78,21.78,0,0,0-12.68,10.19,32,32,0,0,0-2.57,6.64L450,260.9c2.34-8.48,5-19.89,5-27.64,0,0,3.71-10.58-25.77-7.88a14.82,14.82,0,0,0-5.47.59l-.94-5.94,5.52-.85c19.35-3,26-4.79,35.27-2.25A87.87,87.87,0,0,1,472.4,220.05Z" transform="translate(-41.3 -69.5)"/><path class="cls-24" d="M451.36,160.93c1.77.9,3.08,1.67,4.68,2.4-4.89,2.68-7.2,1.64-8.14.77a1.51,1.51,0,0,0-.21-.23s0,0,0,0a4.85,4.85,0,0,1-.35-.48s0,0,0,0-18.68-5.77-64.93,6.75c0,0-35.29,7.39-54.12-1.27,0,0-28.72-13.34-43.2,16.24a53.15,53.15,0,0,1,1.44-6.89c2.27-8.06,3.68-13.15,8.29-16.81,5.58-4.48,12.56-4.25,24.51-3.69,8.13.38,11.8,1.42,17.52,2.19,13,1.71,17.54-.56,44-3.21,14.58-1.46,21.87-2.21,31-2.17C426.34,154.56,438.88,154.72,451.36,160.93Z" transform="translate(-41.3 -69.5)"/><path class="cls-25" d="M429.27,225.38c29.48-2.7,25.77,7.88,25.77,7.88,0,7.75-2.7,19.16-5,27.64-1.83,6.61-3.46,11.46-3.46,11.46a25.88,25.88,0,0,0-18.16-11.1l.62-4.92c5.65,0,6.44-6.73,6.44-6.73a8.7,8.7,0,0,0,2.83,1.79C448.73,254,451.09,245,451.09,245c2.37-13.06-14-17.71-14-17.71A25.13,25.13,0,0,0,429.27,225.38Z" transform="translate(-41.3 -69.5)"/><path class="cls-20" d="M450,260.9l2.56.48C447.34,282,470.21,293,470.21,293c-25.42,32.81-32.81,53.31-32.81,53.31-4.1,22.14-8.19,6.56-8.19,6.56s.36-20,3.75-31.74v0c6.48-1.08,11.17-4.12,11-7.52-.08-2-1.87-3.83-4.73-5.08a26.44,26.44,0,0,0,10.65-13.71,28.16,28.16,0,0,0,1.17-7.72,25.74,25.74,0,0,0-4.55-14.69S448.17,267.51,450,260.9Z" transform="translate(-41.3 -69.5)"/><path class="cls-26" d="M423.36,244.59a18.19,18.19,0,0,1-2.21.42s-10.85-.61-4.65-12.79a12.1,12.1,0,0,1,7.3-6.25,14.82,14.82,0,0,1,5.47-.59,25.13,25.13,0,0,1,7.86,1.92s16.33,4.65,14,17.71c0,0-2.36,9-12.82,6.39a8.7,8.7,0,0,1-2.83-1.79s-.79,6.73-6.44,6.73a10.23,10.23,0,0,1-3.89-.87S417.15,251.44,423.36,244.59Z" transform="translate(-41.3 -69.5)"/><path d="M451.09,287.05a28.16,28.16,0,0,1-1.17,7.72,26.44,26.44,0,0,1-10.65,13.71,26,26,0,0,0-10.91-1.75c-5.92.23-11,2-13.46,4.44-2.6-1.33-11.37-6.23-14.62-16.4a26.6,26.6,0,0,1-1.17-7.72,26,26,0,0,1,26-26,23.53,23.53,0,0,1,3.27.21,26,26,0,0,1,22.71,25.79ZM435,298.48c3.75-3.77,5.21-8.39,3.25-10.37s-6.6-.5-10.37,3.25-5.21,8.39-3.25,10.37S431.23,302.23,435,298.48Zm-11.56-11.56c5.71-5.71,8-12.62,5.23-15.44s-9.73-.47-15.44,5.23-8,12.63-5.22,15.44S417.73,292.61,423.44,286.92Z" transform="translate(-41.3 -69.5)"/><path class="cls-27" d="M444,313.56c.13,3.4-4.56,6.44-11,7.52a27.7,27.7,0,0,1-4.08.44c-8.5.31-15.5-2.75-15.65-6.83a4.71,4.71,0,0,1,1.67-3.52c2.46-2.44,7.54-4.21,13.46-4.44a26,26,0,0,1,10.91,1.75C442.13,309.73,443.92,311.52,444,313.56Z" transform="translate(-41.3 -69.5)"/><ellipse class="cls-26" cx="431.44" cy="294.92" rx="9.63" ry="5.04" transform="translate(-123.47 321.95) rotate(-45)"/><path class="cls-25" d="M394.49,309.92a16.41,16.41,0,0,1-3.77,3.12,11.63,11.63,0,0,1-7.07,1.67v.06s-1.79,13.31,9.59,15.44C393.24,330.21,406.65,327.73,394.49,309.92ZM433,321.08v0c-3.39,11.74-3.75,31.74-3.75,31.74a82.59,82.59,0,0,1-2.5,10.38c-30.08,4.06-14.29,31.06-14.29,31.06l0,0c-1.77,2.85-2.91,4.48-2.91,4.48-13.13,13.12-10.42,25.41-10.42,25.41,2.71,28.71-10.1,22.14-10.1,22.14a2.61,2.61,0,0,1-2.36.17c0-11.71,2.94-18.81,2.94-18.81,3-13.25-1.48-18.69-4-20.58l2.88-3.15,0,0,2.43-2.44-11.79-10.29-2.08,2.31-.89.21a64.47,64.47,0,0,0-17.69-30.58c-.69-17.81-10.79-24.5-18.65-27h0c-.31-.5-5.56-8.21-7.64-16.17,3,1.38,7.41,2,12.23,1.42,8.45-.94,14.93-5,14.47-9.06a4.7,4.7,0,0,0-2.12-3.23c2.5-1.21,11.64-6,15-16.31a23.87,23.87,0,0,0,1.16-7.73,26,26,0,1,0-52,0,26.54,26.54,0,0,0,1.17,7.73c3,9.5,10.93,14.25,13.43,15.62-3,1.17-5.35,2.77-6.48,4.54,0,0-9.91-17-16.08-42.58l2.56-.6,2.71,1.06L324,256.69l-3.08-1.5.58-2.68c3.32.77,5.4-2.71,5.4-2.71a10.61,10.61,0,0,0,.5-1.63c2.48,6.63,8,2.67,8,2.67,5.83-4.92-.31-9.12-.31-9.12a6.48,6.48,0,0,0,2.23-1.29c5.49-6.19.2-11,.2-11a9.64,9.64,0,0,0-8.18-1.92l-.75-2a25.11,25.11,0,0,0,5.79-3s5.75,3.31,11.73,1.5c0,0-6.55,29.18,25.43,36.16l-.6.9s8.87,7.56,11.41,9.87l2.34-2.93a71.34,71.34,0,0,1-9.29-7.32s24.37,3.13,28.72-30l3.81-1.77-3.12-7c1.81.06,3.5,0,5.08-.07,1.79-.1,5.71-.68,12.94-1.81l.94,5.94a12.1,12.1,0,0,0-7.3,6.25c-6.2,12.18,4.65,12.79,4.65,12.79a18.19,18.19,0,0,0,2.21-.42c-6.21,6.85,1.75,10.88,1.75,10.88a10.23,10.23,0,0,0,3.89.87l-.62,4.92a23.53,23.53,0,0,0-3.27-.21,26,26,0,0,0-26,26,26.6,26.6,0,0,0,1.17,7.72c3.25,10.17,12,15.07,14.62,16.4a4.71,4.71,0,0,0-1.67,3.52c.15,4.08,7.15,7.14,15.65,6.83A27.7,27.7,0,0,0,433,321.08Zm-15.41,23-1.82-2.73L403.4,350l1.69,3Zm-15.61,33.77c2.94-9.75-9.1-14.73-9.1-14.73-11.62-6.27-16.16,2-16.16,2-5.8,8.75,2.43,10.17,2.43,10.17a11,11,0,0,0,1.73-.13c-5.33,4.67.38,8.44.38,8.44,6.66,3.68,8.37-3.56,8.37-3.56a6.65,6.65,0,0,0,2,1.6C399.36,384.5,401.94,377.83,401.94,377.83Zm-50.45-41.29,1.92-2.37L342,324.27l-1.69,2.21Z" transform="translate(-41.3 -69.5)"/><path class="cls-26" d="M428.67,271.48c2.81,2.82.48,9.73-5.23,15.44s-12.62,8-15.43,5.23-.48-9.73,5.22-15.44S425.86,268.67,428.67,271.48Z" transform="translate(-41.3 -69.5)"/><path class="cls-21" d="M426.71,363.23a139.28,139.28,0,0,1-14.27,31.08l0,0S396.63,367.29,426.71,363.23Z" transform="translate(-41.3 -69.5)"/><polygon class="cls-23" points="374.44 271.83 376.25 274.56 363.79 283.52 362.1 280.54 374.44 271.83"/><path class="cls-23" d="M404.84,221.91l3.12,7-3.81,1.77-4.23-9.15C401.65,221.74,403.28,221.84,404.84,221.91Z" transform="translate(-41.3 -69.5)"/><path class="cls-20" d="M399.92,221.55l4.23,9.15c-4.35,33.1-28.72,30-28.72,30-.86-.81-1.71-1.66-2.53-2.54l-1.33,2c-32-7-25.43-36.16-25.43-36.16-6,1.81-11.73-1.5-11.73-1.5a25.11,25.11,0,0,1-5.79,3c-9.42,3.52-19.77,1.92-20.33,1.81.64-3.12,1.18-4.81,1.18-4.81,7.19-.08,14.79-3,21.31-8.23,10.52,2.94,18.21,4.17,23.77,4.33,0,0-9,27.42,20.06,31.88,0,0,25.56,1.31,22.79-29.25Z" transform="translate(-41.3 -69.5)"/><path class="cls-26" d="M390.22,373.91l-6-.29a5,5,0,0,1-3.36,1.48,11,11,0,0,1-1.73.13s-8.23-1.42-2.43-10.17c0,0,4.54-8.23,16.16-2,0,0,12,5,9.1,14.73,0,0-2.58,6.67-10.33,3.75a6.65,6.65,0,0,1-2-1.6c-1-1.28-1.71-3.3.44-6A1.07,1.07,0,0,1,390.22,373.91Z" transform="translate(-41.3 -69.5)"/><path class="cls-21" d="M374.34,243.7v0c-14-10-12-18.85-12-18.85l-5.14,2.48C358.18,233.3,361.63,243.8,374.34,243.7Zm23.06-22.48c2.77,30.56-22.79,29.25-22.79,29.25-29-4.46-20.06-31.88-20.06-31.88,16.15.55,14.79-7.62,14.79-7.62C380.15,217.11,389.55,220,397.4,221.22Z" transform="translate(-41.3 -69.5)"/><path class="cls-28" d="M390.72,313a16.41,16.41,0,0,0,3.77-3.12c12.16,17.81-1.25,20.29-1.25,20.29-11.38-2.13-9.59-15.44-9.59-15.44v-.06A11.63,11.63,0,0,0,390.72,313Z" transform="translate(-41.3 -69.5)"/><polygon class="cls-23" points="349.65 332.08 347.21 334.51 347.17 334.47 335.77 324.1 337.86 321.79 349.65 332.08"/><path class="cls-26" d="M384.2,373.62l6,.29a1.07,1.07,0,0,0-.19.09c-2.15,2.68-1.48,4.7-.44,6,0,0-1.71,7.24-8.37,3.56,0,0-5.71-3.77-.38-8.44A5,5,0,0,0,384.2,373.62Z" transform="translate(-41.3 -69.5)"/><path class="cls-29" d="M385.59,407.12c2.52,1.89,7,7.33,4,20.58,0,0-3,7.1-2.94,18.81-4.2-1.92-4.2-16.56-4.2-16.56,4.1-23.79-4.09-23-4.09-23l1-2.06a13.21,13.21,0,0,0,4.75,1.27A6.79,6.79,0,0,1,385.59,407.12Z" transform="translate(-41.3 -69.5)"/><path class="cls-25" d="M388.47,404l-2.88,3.15a6.79,6.79,0,0,0-1.52-.92,13.21,13.21,0,0,1-4.75-1.27c-2.69-1.46-1.9-3.46-1.9-3.46a57,57,0,0,0-1.24-7.66l.89-.21Z" transform="translate(-41.3 -69.5)"/><path class="cls-23" d="M384.72,268l-2.34,2.93c-2.54-2.31-11.41-9.87-11.41-9.87l.6-.9,1.33-2c.82.88,1.67,1.73,2.53,2.54A71.34,71.34,0,0,0,384.72,268Z" transform="translate(-41.3 -69.5)"/><path class="cls-29" d="M379.32,404.93l-1,2.06c-.31.8-.62,1.5-.91,2.17h0c-8,5.17-4.52-10.69-4.52-10.69C369.72,385.16,358.32,370,358.32,370h0a54.83,54.83,0,0,0,.19-6.79,64.47,64.47,0,0,1,17.69,30.58,57,57,0,0,1,1.24,7.66S376.63,403.47,379.32,404.93Z" transform="translate(-41.3 -69.5)"/><path class="cls-29" d="M377.42,409.16h0c-9.09,20-11.4-16.12-11.4-16.12-.54-4.86-3.92-11.81-8.19-19,.21-1.4.36-2.75.44-4h0s11.4,15.14,14.58,28.45C372.9,398.47,369.43,414.33,377.42,409.16Z" transform="translate(-41.3 -69.5)"/><path class="cls-30" d="M374.34,243.67v0c-12.71.1-16.16-10.4-17.1-16.4l5.14-2.48S360.34,233.63,374.34,243.67Z" transform="translate(-41.3 -69.5)"/><path d="M372.9,285.15a23.87,23.87,0,0,1-1.16,7.73c-3.34,10.31-12.48,15.1-15,16.31-2.81-2.06-8.1-3.08-14-2.42a28.6,28.6,0,0,0-7.23,1.73c-2.5-1.37-10.39-6.12-13.43-15.62a26.54,26.54,0,0,1-1.17-7.73,26,26,0,1,1,52,0ZM358.09,296c3.77-3.77,5.23-8.39,3.27-10.37s-6.6-.5-10.37,3.27-5.21,8.4-3.25,10.35S354.34,299.77,358.09,296ZM346,283.88c5.71-5.71,8.06-12.6,5.23-15.42s-9.71-.47-15.42,5.23-8.06,12.63-5.25,15.44S340.26,289.59,346,283.88Z" transform="translate(-41.3 -69.5)"/><path class="cls-19" d="M369.34,211s1.36,8.17-14.79,7.62c-5.56-.16-13.25-1.39-23.77-4.33-6.52,5.23-14.12,8.15-21.31,8.23a24.27,24.27,0,0,1-10.23-2c-1.43-.62-9.22-4-12.74-12-1.32-3-1.48-5.39-1.8-10.21a61.81,61.81,0,0,1,.36-13.16c.31,1.16,6.23,21.16,22.45,17.41,0,0,25.23-7.08,36.08,2.57,0,0,11.17,7.39,19.69,5Z" transform="translate(-41.3 -69.5)"/><path class="cls-26" d="M361.36,285.65c2,2,.5,6.6-3.27,10.37s-8.39,5.21-10.35,3.25-.5-6.6,3.25-10.35S359.38,283.69,361.36,285.65Z" transform="translate(-41.3 -69.5)"/><path class="cls-27" d="M358.88,312.42c.46,4.06-6,8.12-14.47,9.06-4.82.54-9.25,0-12.23-1.42-2.25-1-3.69-2.47-3.9-4.22a4.22,4.22,0,0,1,.77-2.8c1.13-1.77,3.44-3.37,6.48-4.54a28.6,28.6,0,0,1,7.23-1.73c5.9-.66,11.19.36,14,2.42A4.7,4.7,0,0,1,358.88,312.42Z" transform="translate(-41.3 -69.5)"/><path class="cls-21" d="M358.49,363.23a54.83,54.83,0,0,1-.19,6.79c-.08,1.29-.23,2.64-.44,4-8.77-14.69-21.33-30.23-21.33-30.23-2.12-3-4.1-6.08-6-9.08a30.07,30.07,0,0,1,9.25,1.48h0C347.7,338.73,357.8,345.42,358.49,363.23Z" transform="translate(-41.3 -69.5)"/><polygon class="cls-23" points="312.11 264.67 310.19 267.04 298.96 256.98 300.65 254.77 312.11 264.67"/><path class="cls-26" d="M351.2,268.46c2.83,2.82.48,9.71-5.23,15.42s-12.6,8.06-15.44,5.25-.46-9.73,5.25-15.44S348.39,265.63,351.2,268.46Z" transform="translate(-41.3 -69.5)"/><path class="cls-26" d="M335.12,241.72s6.14,4.2.31,9.12c0,0-5.54,4-8-2.67a10.61,10.61,0,0,1-.5,1.63s-2.08,3.48-5.4,2.71c-1.43-.36-3.1-1.5-4.95-4.09,0,0-6.05-7.2,4-15.79,0,0,3.9-4.1,8.84-5.12a9.64,9.64,0,0,1,8.18,1.92s5.29,4.81-.2,11A6.48,6.48,0,0,1,335.12,241.72Z" transform="translate(-41.3 -69.5)"/><path class="cls-29" d="M332.18,320.06c2.08,8,7.33,15.67,7.64,16.17a30.07,30.07,0,0,0-9.25-1.48c-30.66-49.81-25.28-93.22-22.31-107.39a164.74,164.74,0,0,0,4.71,43.1C319.14,296,329.05,313,329.05,313a4.22,4.22,0,0,0-.77,2.8C328.49,317.59,329.93,319,332.18,320.06Z" transform="translate(-41.3 -69.5)"/><path class="cls-25" d="M328.62,225.49l.75,2c-4.94,1-8.84,5.12-8.84,5.12-10,8.59-4,15.79-4,15.79,1.85,2.59,3.52,3.73,4.95,4.09l-.58,2.68s-4.42,10.42-5.4,14.67l-2.56.6a164.74,164.74,0,0,1-4.71-43.1s0,0,0-.06C308.85,227.41,319.2,229,328.62,225.49Z" transform="translate(-41.3 -69.5)"/><path class="cls-23" d="M324,256.69l-5.77,14.23-2.71-1.06c1-4.25,5.4-14.67,5.4-14.67Z" transform="translate(-41.3 -69.5)"/><path class="cls-31" d="M285.06,185.12s0,0,0-.07a53.15,53.15,0,0,1,1.44-6.89c2.27-8.06,3.68-13.15,8.29-16.81,5.58-4.48,12.56-4.25,24.51-3.69,8.13.38,11.8,1.42,17.52,2.19,13,1.71,17.54-.56,44-3.21,14.58-1.46,21.87-2.21,31-2.17,14.56.09,27.1.25,39.58,6.46,1.77.9,3.08,1.67,4.68,2.4a26.55,26.55,0,0,0,3.61,1.37c7.6,2.34,12,.84,23.68,1.59,6,.39,9,.58,10.88,1.22,10.93,3.73,18.75,15.84,19.47,27.06a37.5,37.5,0,0,1-.93,9.73c-1.21,6.67-2.21,12-6.46,16.52-.79.84-5.88,6.06-13.27,6.46-4.77.25-6.65-1.71-18.71-6.46l-1.91-.77a87.87,87.87,0,0,0-8.75-3.12c-9.31-2.54-15.92-.79-35.27,2.25l-5.52.85c-7.23,1.13-11.15,1.71-12.94,1.81-1.58.09-3.27.13-5.08.07-1.56-.07-3.19-.17-4.92-.36l-2.52-.33c-7.85-1.21-17.25-4.11-28.06-10.25,0,0,1.36,8.17-14.79,7.62-5.56-.16-13.25-1.39-23.77-4.33-6.52,5.23-14.12,8.15-21.31,8.23a24.27,24.27,0,0,1-10.23-2c-1.43-.62-9.22-4-12.74-12-1.32-3-1.48-5.39-1.8-10.21a61.81,61.81,0,0,1,.36-13.16" transform="translate(-41.3 -69.5)"/><path class="cls-31" d="M309.47,222.49s-.54,1.69-1.18,4.81c0,0,0,0,0,.06-3,14.17-8.35,57.58,22.31,107.39,1.86,3,3.84,6,6,9.08,0,0,12.56,15.54,21.33,30.23,4.27,7.17,7.65,14.12,8.19,19,0,0,2.31,36.14,11.4,16.12.29-.67.6-1.37.91-2.17,0,0,8.19-.83,4.09,23,0,0,0,14.64,4.2,16.56a2.61,2.61,0,0,0,2.36-.17s12.81,6.57,10.1-22.14c0,0-2.71-12.29,10.42-25.41,0,0,1.14-1.63,2.91-4.48a139.28,139.28,0,0,0,14.27-31.08,82.59,82.59,0,0,0,2.5-10.38s4.09,15.58,8.19-6.56c0,0,7.39-20.5,32.81-53.31,0,0,14.64-19.72,20.46-45.74a94.66,94.66,0,0,0,2.35-20" transform="translate(-41.3 -69.5)"/><path class="cls-31" d="M356.76,309.19a4.7,4.7,0,0,1,2.12,3.23c.46,4.06-6,8.12-14.47,9.06-4.82.54-9.25,0-12.23-1.42-2.25-1-3.69-2.47-3.9-4.22a4.22,4.22,0,0,1,.77-2.8c1.13-1.77,3.44-3.37,6.48-4.54" transform="translate(-41.3 -69.5)"/><path class="cls-31" d="M439.27,308.48c2.86,1.25,4.65,3,4.73,5.08.13,3.4-4.56,6.44-11,7.52a27.7,27.7,0,0,1-4.08.44c-8.5.31-15.5-2.75-15.65-6.83a4.71,4.71,0,0,1,1.67-3.52c2.46-2.44,7.54-4.21,13.46-4.44A26,26,0,0,1,439.27,308.48Z" transform="translate(-41.3 -69.5)"/><path class="cls-31" d="M371,307.71s5.6,6.48,12.68,7a11.63,11.63,0,0,0,7.07-1.67,16.41,16.41,0,0,0,3.77-3.12,26.22,26.22,0,0,0,1.83-2.21" transform="translate(-41.3 -69.5)"/><path class="cls-31" d="M383.65,314.77s-1.79,13.31,9.59,15.44c0,0,13.41-2.48,1.25-20.29" transform="translate(-41.3 -69.5)"/><path class="cls-31" d="M390.72,313s2.75,4,2.52,7" transform="translate(-41.3 -69.5)"/><path class="cls-31" d="M421.15,238.61s-.29-6.39,5.23-2.31c0,0,5.23,6.23-3,8.29a18.19,18.19,0,0,1-2.21.42s-10.85-.61-4.65-12.79a12.1,12.1,0,0,1,7.3-6.25,14.82,14.82,0,0,1,5.47-.59,25.13,25.13,0,0,1,7.86,1.92s16.33,4.65,14,17.71c0,0-2.36,9-12.82,6.39a8.7,8.7,0,0,1-2.83-1.79c-1.56-1.48-2.73-4-.35-7.79,0,0,4.93-3.21,6.1,1.73" transform="translate(-41.3 -69.5)"/><path class="cls-31" d="M435.44,249.61s-.79,6.73-6.44,6.73a10.23,10.23,0,0,1-3.89-.87s-8-4-1.75-10.88" transform="translate(-41.3 -69.5)"/><path class="cls-31" d="M327.41,248.17a10.61,10.61,0,0,1-.5,1.63s-2.08,3.48-5.4,2.71c-1.43-.36-3.1-1.5-4.95-4.09,0,0-6.05-7.2,4-15.79,0,0,3.9-4.1,8.84-5.12a9.64,9.64,0,0,1,8.18,1.92s5.29,4.81-.2,11a6.48,6.48,0,0,1-2.23,1.29c-1.57.54-3.69.43-5.42-2.54,0,0-.42-4.48,3.35-3.53" transform="translate(-41.3 -69.5)"/><path class="cls-31" d="M322.55,247.53s-4.43-2.08.3-4.38c0,0,6.1-1.33,4.56,5" transform="translate(-41.3 -69.5)"/><path class="cls-31" d="M335.12,241.72s6.14,4.2.31,9.12c0,0-5.54,4-8-2.67v0" transform="translate(-41.3 -69.5)"/><path class="cls-31" d="M379.67,370.35s.34-4.91,4.19-1.33c0,0,1.81,2.75.34,4.6a5,5,0,0,1-3.36,1.48,11,11,0,0,1-1.73.13s-8.23-1.42-2.43-10.17c0,0,4.54-8.23,16.16-2,0,0,12,5,9.1,14.73,0,0-2.58,6.67-10.33,3.75a6.65,6.65,0,0,1-2-1.6c-1-1.28-1.71-3.3.44-6a1.07,1.07,0,0,1,.19-.09c.77-.33,3.91-1.41,4.29,2" transform="translate(-41.3 -69.5)"/><path class="cls-31" d="M389.59,380s-1.71,7.24-8.37,3.56c0,0-5.71-3.77-.38-8.44" transform="translate(-41.3 -69.5)"/><path class="cls-31" d="M285.06,185.12s0,0,0,0c.31,1.16,6.23,21.16,22.45,17.41,0,0,25.23-7.08,36.08,2.57,0,0,11.17,7.39,19.69,5" transform="translate(-41.3 -69.5)"/><path class="cls-31" d="M354.55,218.59s-9,27.42,20.06,31.88c0,0,25.56,1.31,22.79-29.25" transform="translate(-41.3 -69.5)"/><path class="cls-31" d="M371.57,260.15l-.6.9s8.87,7.56,11.41,9.87l2.34-2.93a71.34,71.34,0,0,1-9.29-7.32c-.86-.81-1.71-1.66-2.53-2.54Z" transform="translate(-41.3 -69.5)"/><path class="cls-31" d="M320.93,255.19s-4.42,10.42-5.4,14.67l2.71,1.06L324,256.69Z" transform="translate(-41.3 -69.5)"/><polygon class="cls-31" points="430.06 154.41 422.22 167.69 424.87 169.4 432.33 155.84 430.06 154.41"/><polygon class="cls-31" points="362.1 280.54 374.44 271.83 376.25 274.56 363.79 283.52 362.1 280.54"/><polygon class="cls-31" points="335.77 324.1 337.86 321.79 349.65 332.08 347.21 334.51 347.17 334.47 335.77 324.1"/><polygon class="cls-31" points="298.96 256.98 300.65 254.77 312.11 264.67 310.19 267.04 298.96 256.98"/><path class="cls-31" d="M374,218.59s.89,14.69,0,20" transform="translate(-41.3 -69.5)"/><line class="cls-31" x1="341.08" y1="160.51" x2="344.21" y2="161.2"/><line class="cls-31" x1="339.92" y1="163.76" x2="343.42" y2="166.13"/><line class="cls-31" x1="341.08" y1="155.32" x2="344.21" y2="153.68"/><line class="cls-31" x1="326.57" y1="154.49" x2="323.15" y2="154.49"/><line class="cls-31" x1="326.57" y1="160.51" x2="323.15" y2="161.84"/><line class="cls-31" x1="327.32" y1="163.76" x2="324.86" y2="166.13"/><path class="cls-31" d="M356.89,223.18a26.55,26.55,0,0,0,.35,4.12c.94,6,4.39,16.5,17.1,16.4a31.15,31.15,0,0,0,6.88-.94" transform="translate(-41.3 -69.5)"/><path class="cls-31" d="M470.21,293s-22.87-11-17.65-31.6a32,32,0,0,1,2.57-6.64,21.78,21.78,0,0,1,12.68-10.19c5.48-1.69,13-1.67,22.86,2.69" transform="translate(-41.3 -69.5)"/><line class="cls-31" x1="427.29" y1="203.78" x2="422.22" y2="204.71"/><line class="cls-31" x1="427.29" y1="200.82" x2="422.22" y2="199.88"/><line class="cls-31" x1="427.29" y1="197.55" x2="422.22" y2="195.51"/><line class="cls-31" x1="429.93" y1="194.73" x2="427.99" y2="188.96"/><line class="cls-31" x1="434.39" y1="191.86" x2="433.76" y2="186.84"/><path class="cls-31" d="M466.06,250.47s-20.43,13.1-5.64,31.35" transform="translate(-41.3 -69.5)"/><path class="cls-31" d="M339.84,336.23c7.86,2.5,18,9.19,18.65,27a54.83,54.83,0,0,1-.19,6.79c-.08,1.29-.23,2.64-.44,4" transform="translate(-41.3 -69.5)"/><path class="cls-31" d="M330.57,334.75a30.07,30.07,0,0,1,9.25,1.48" transform="translate(-41.3 -69.5)"/><path class="cls-31" d="M336.51,337.71s17.79,4.69,18.83,23" transform="translate(-41.3 -69.5)"/><line class="cls-31" x1="298.96" y1="275.08" x2="298.96" y2="272.83"/><line class="cls-31" x1="301.75" y1="277.69" x2="303.25" y2="275.08"/><line class="cls-31" x1="304.63" y1="281.33" x2="306.05" y2="277.69"/><line class="cls-31" x1="307.61" y1="284.89" x2="309.28" y2="282.98"/><line class="cls-31" x1="309.75" y1="288.16" x2="310.84" y2="286.68"/><path class="cls-31" d="M339.84,336.23h0" transform="translate(-41.3 -69.5)"/><path class="cls-31" d="M412.42,394.29s-15.79-27,14.29-31.06" transform="translate(-41.3 -69.5)"/><path class="cls-31" d="M412.32,387.89a16.39,16.39,0,0,1,4.46-19.5" transform="translate(-41.3 -69.5)"/><line class="cls-31" x1="378.25" y1="300.52" x2="378.25" y2="297.66"/><line class="cls-31" x1="377.14" y1="303.91" x2="376.25" y2="301.23"/><line class="cls-31" x1="376.25" y1="307.04" x2="374.58" y2="304.68"/><line class="cls-31" x1="376.25" y1="309.7" x2="373.46" y2="309.25"/><line class="cls-31" x1="374.58" y1="312.83" x2="372.02" y2="313.5"/><path class="cls-32" d="M335,308.73s11.71-5.29,22.64,1.18" transform="translate(-41.3 -69.5)"/><polyline class="cls-31" points="358.62 152.05 362.85 161.19 366.66 159.42 363.54 152.4"/><path class="cls-31" d="M384.75,444.33s4.19,7.4,11.5.66" transform="translate(-41.3 -69.5)"/></svg>