<svg id="Livello_1" data-name="Livello 1" xmlns="http://www.w3.org/2000/svg" viewBox="0 0 355.94 302.3"><defs><style>.cls-1{fill:#ed8b75;}.cls-2{fill:#c75f47;}.cls-3{fill:#e96e5c;}.cls-4{fill:#f08f80;}.cls-5{fill:#de836d;}.cls-6{fill:#ad4833;}.cls-7{fill:#cfc4a6;}.cls-8{fill:#f5eee2;}.cls-9{fill:#1d1d1b;}.cls-10,.cls-11{fill:none;stroke:#1d1d1b;stroke-miterlimit:10;}.cls-10{stroke-width:5px;}.cls-12{fill:#fbe5b7;}.cls-13{fill:#f7d4a9;}.cls-14{fill:#eaba91;}.cls-15{fill:#f7d39e;}.cls-16{fill:#f3b98a;}.cls-17{fill:#ec8956;}.cls-18{fill:#cbc5ac;}</style></defs><path class="cls-1" d="M197.61,198.27a11.65,11.65,0,0,1,4.1,3.27c-2.25,1.25-4.47,2.4-6.63,3.44a23.2,23.2,0,0,0-4-2.93C193.44,200.88,195.33,199.69,197.61,198.27Z" transform="translate(-88.39 -145.69)"/><path class="cls-2" d="M287.29,184.94c.66,1,1.26,1.94,1.78,2.82-3.73-1-7.34-1.84-10.81-2.49A44.29,44.29,0,0,0,274,171.83,75.08,75.08,0,0,1,287.29,184.94Z" transform="translate(-88.39 -145.69)"/><path class="cls-2" d="M221.76,185.69a14.46,14.46,0,0,1,2.26,3.16,51.25,51.25,0,0,0-10.9,5.45,115.16,115.16,0,0,1-11.41,7.24,11.65,11.65,0,0,0-4.1-3.27c2.63-1.64,5.77-3.58,10.69-6.09,1.86-1,.77-.35,7.83-3.75C218.29,187.39,220.15,186.48,221.76,185.69Z" transform="translate(-88.39 -145.69)"/><path class="cls-2" d="M245.57,176.65s2.32,1.68,2.9,6.86a91.53,91.53,0,0,0-17.57,3.08,14.85,14.85,0,0,0-2.87-4c3.3-1.66,4.83-2.45,6.7-3.27a62.16,62.16,0,0,1,10.13-3.42C245.11,176.14,245.35,176.4,245.57,176.65Z" transform="translate(-88.39 -145.69)"/><path class="cls-2" d="M260.1,162.51a38,38,0,0,1,13,21.92,113.13,113.13,0,0,0-17.83-1.22,15.54,15.54,0,0,0-.64-2.7,17.84,17.84,0,0,0-3.41-5.86c2.34-.35,4.86-.61,7.57-.75a94.08,94.08,0,0,0-9.6-1.6l-.43-.48c-.95-1.07-4.83-5.31-13.14-10.32a91.82,91.82,0,0,0-17.38-8,116.27,116.27,0,0,0-20-5.22c26.89-.81,47.33,6.16,61.8,14.24Z" transform="translate(-88.39 -145.69)"/><path class="cls-2" d="M225.77,164.18a91.69,91.69,0,0,1,14.06,7.64A61.27,61.27,0,0,0,224,173.9c-1.73.47-3.73,1.1-5.75,1.77a81,81,0,0,0-10.06-4.49,143,143,0,0,0-13.6-4.63,128,128,0,0,0-28.8-4.79,125.66,125.66,0,0,0-33.29,2.85c13.85-7.7,30.93-11.81,43.82-14h0C177,150.68,203.12,152.44,225.77,164.18Z" transform="translate(-88.39 -145.69)"/><path class="cls-2" d="M191.8,173.38a175.36,175.36,0,0,1,17.61,5.35c-10.15,3.63-18.74,7.24-18.74,7.24-5.91,2.93-9.23,4.56-11.38,5.6l-.48.23c-9.44-2.11-18.55-3.33-18.55-3.33-25-5-55.33-1-55.33-1a117.71,117.71,0,0,1,16.8-15.65h0C122.53,171.7,166.33,165.15,191.8,173.38Z" transform="translate(-88.39 -145.69)"/><path class="cls-2" d="M100.75,192.56s21.88-.86,40.16,0c0,0,16.05,1,29.25,3.15a50.28,50.28,0,0,1-5.23,2,67.84,67.84,0,0,1-24.29,2.32s1.92.7,4.6,1.6,6.13,2,9.19,2.82c6.57,1.76,13.5,3.61,21.93,2.44a43.35,43.35,0,0,0,11.06-3.22c1.39-.55,2.59-1.1,3.69-1.65a23.2,23.2,0,0,1,4,2.93,134.66,134.66,0,0,1-24.29,9.15,21.28,21.28,0,0,0-7.29-1.3c-6.85-.91-16.87-1.81-25.61-2.52h-.11c-16.13-1.65-38.32-16-38.32-16Q100.11,193.42,100.75,192.56Z" transform="translate(-88.39 -145.69)"/><path class="cls-3" d="M258.79,173.9c-2.71.14-5.23.4-7.57.75-.61-.75-1.29-1.52-2-2.35A94.08,94.08,0,0,1,258.79,173.9Z" transform="translate(-88.39 -145.69)"/><path class="cls-3" d="M244.86,175.9a62.16,62.16,0,0,0-10.13,3.42c-1.87.82-3.4,1.61-6.7,3.27a41.14,41.14,0,0,0-7.13-5.35c-.9-.58-1.76-1.09-2.61-1.57,2-.67,4-1.3,5.75-1.77a61.27,61.27,0,0,1,15.79-2.08A32.82,32.82,0,0,1,244.86,175.9Z" transform="translate(-88.39 -145.69)"/><path class="cls-3" d="M221.76,185.69c-1.61.79-3.47,1.7-5.63,2.74-7.06,3.4-6,2.8-7.83,3.75-4.92,2.51-8.06,4.45-10.69,6.09l-.26-.1c-3.59-2.55-11.17-4.73-18.54-6.37l.48-.23c2.15-1,5.47-2.67,11.38-5.6,0,0,8.59-3.61,18.74-7.24a36.91,36.91,0,0,1,6.91,3.27A14.71,14.71,0,0,1,221.76,185.69Z" transform="translate(-88.39 -145.69)"/><path class="cls-3" d="M191.11,202.05c-1.1.55-2.3,1.1-3.69,1.65a43.35,43.35,0,0,1-11.06,3.22c-8.43,1.17-15.36-.68-21.93-2.44-3.06-.82-6.51-1.92-9.19-2.82s-4.6-1.6-4.6-1.6a67.84,67.84,0,0,0,24.29-2.32,50.28,50.28,0,0,0,5.23-2c6.14,1,11.67,2.25,14.68,3.75A23.35,23.35,0,0,1,191.11,202.05Z" transform="translate(-88.39 -145.69)"/><path class="cls-4" d="M249.19,172.3c.74.83,1.42,1.6,2,2.35-2.29.34-4.41.77-6.36,1.25a32.82,32.82,0,0,0-5-4.08A74.66,74.66,0,0,1,249.19,172.3Z" transform="translate(-88.39 -145.69)"/><path class="cls-4" d="M220.9,177.24a41.14,41.14,0,0,1,7.13,5.35c-1.59.79-3.6,1.8-6.27,3.1a14.71,14.71,0,0,0-5.44-3.69,36.91,36.91,0,0,0-6.91-3.27c1.39-.5,2.8-1,4.23-1.49s3.07-1.05,4.65-1.57C219.14,176.15,220,176.66,220.9,177.24Z" transform="translate(-88.39 -145.69)"/><path class="cls-4" d="M197.35,198.17l.26.1c-2.28,1.42-4.17,2.61-6.5,3.78a23.35,23.35,0,0,0-6.27-2.59c-3-1.5-8.54-2.75-14.68-3.75l4.74-2.1c1.14-.51,2.07-.93,3.91-1.81C186.18,193.44,193.76,195.62,197.35,198.17Z" transform="translate(-88.39 -145.69)"/><path class="cls-5" d="M278.26,185.27a26,26,0,0,1-1.84,14.79c-1-.31-2-.63-2.76-.91a45.69,45.69,0,0,0-.56-14.72C274.79,184.66,276.51,185,278.26,185.27Z" transform="translate(-88.39 -145.69)"/><path class="cls-5" d="M274,171.83a44.29,44.29,0,0,1,4.25,13.44c-1.75-.32-3.47-.61-5.16-.84a38,38,0,0,0-13-21.92,103.85,103.85,0,0,1,13.9,9.3Z" transform="translate(-88.39 -145.69)"/><path class="cls-5" d="M248.76,171.82l.43.48a74.66,74.66,0,0,0-9.36-.48,91.69,91.69,0,0,0-14.06-7.64c-22.65-11.74-48.79-13.5-49.4-13.54a183.82,183.82,0,0,1,19.22-2.28c.9-.05,1.78-.08,2.66-.11h0a116.27,116.27,0,0,1,20,5.22,91.82,91.82,0,0,1,17.38,8C243.93,166.51,247.81,170.75,248.76,171.82Z" transform="translate(-88.39 -145.69)"/><path class="cls-5" d="M254.63,180.51a15.54,15.54,0,0,1,.64,2.7q-3.54,0-6.8.3c-.58-5.18-2.9-6.86-2.9-6.86-.22-.25-.46-.51-.71-.75,1.95-.48,4.07-.91,6.36-1.25A17.84,17.84,0,0,1,254.63,180.51Z" transform="translate(-88.39 -145.69)"/><path class="cls-5" d="M255.27,183.21c1.08,7.33-3,14.14-4.44,16.33a0,0,0,0,0,0,0,44,44,0,0,0-6.9,5.31c4.3-10.27,5-17,4.55-21.35Q251.72,183.26,255.27,183.21Z" transform="translate(-88.39 -145.69)"/><path class="cls-5" d="M228,182.59a14.85,14.85,0,0,1,2.87,4c-2.56.71-4.86,1.49-6.88,2.26a14.46,14.46,0,0,0-2.26-3.16C224.43,184.39,226.44,183.38,228,182.59Z" transform="translate(-88.39 -145.69)"/><path class="cls-5" d="M231,186.84c.87,1.81,1.65,4.36,1.32,11.2a81.3,81.3,0,0,1-3.69,20.49c-2.55,1.86-5.15,3.56-7.76,5.11,1.62-6.76,3.73-20,3.73-20,2-6.73,1.14-11.51-.61-14.83,2-.77,4.32-1.55,6.88-2.26C231,186.67,231,186.76,231,186.84Z" transform="translate(-88.39 -145.69)"/><path class="cls-5" d="M208.23,171.18a81,81,0,0,1,10.06,4.49c-1.58.52-3.17,1.06-4.65,1.57s-2.84,1-4.23,1.49a175.36,175.36,0,0,0-17.61-5.35c-25.47-8.23-69.27-1.68-70.06-1.56,1.57-1.19,2.5-1.82,2.5-1.82a67.17,67.17,0,0,1,8.3-5.39,125.66,125.66,0,0,1,33.29-2.85,128,128,0,0,1,28.8,4.79A143,143,0,0,1,208.23,171.18Z" transform="translate(-88.39 -145.69)"/><path class="cls-5" d="M160.26,188.47s9.11,1.22,18.55,3.33c-1.84.88-2.77,1.3-3.91,1.81l-4.74,2.1c-13.2-2.14-29.25-3.15-29.25-3.15-18.28-.86-40.16,0-40.16,0,1.36-1.78,2.77-3.48,4.18-5.09C104.93,187.47,135.25,183.51,160.26,188.47Z" transform="translate(-88.39 -145.69)"/><path class="cls-5" d="M201.71,201.54c3.38,4,7,12.47,4.13,29.67-1.73.72-3.43,1.39-5.08,2l.9-11.66c.19-8-3-13.23-6.58-16.57C197.24,203.94,199.46,202.79,201.71,201.54Z" transform="translate(-88.39 -145.69)"/><path class="cls-5" d="M137.89,210.31c8.74.71,18.76,1.61,25.61,2.52a21.28,21.28,0,0,1,7.29,1.3c6.15,2.21,13.76,8.18,12.57,24.25h0c-3.13.7-5.6,1.14-7.18,1.39,2.12-19.84-16.13-21.05-16.13-21.05-11.86-2.09-40.44-3.74-40.44-3.74-14.78-.86-14.68,14.59-14.68,14.59a67.87,67.87,0,0,1-6.6-4.31s1.54-17.61,21.28-16.32c0,0,8.25.55,18.17,1.35Z" transform="translate(-88.39 -145.69)"/><path class="cls-6" d="M289.08,187.76c10.42,17.46-4,15-12.66,12.3a26,26,0,0,0,1.84-14.79c3.47.65,7.08,1.47,10.81,2.49Z" transform="translate(-88.39 -145.69)"/><path class="cls-6" d="M273.1,184.43a45.69,45.69,0,0,1,.56,14.72c-1.73-.61-2.85-1.08-2.85-1.08-6.86-4.48-14.32-2-20,1.47,1.43-2.19,5.52-9,4.44-16.33A113.13,113.13,0,0,1,273.1,184.43Z" transform="translate(-88.39 -145.69)"/><path class="cls-6" d="M248.47,183.51c.48,4.32-.25,11.08-4.55,21.35h0c-1.4,1.31-2.21,2.22-2.21,2.22a90.89,90.89,0,0,1-13,11.44A81.3,81.3,0,0,0,232.35,198c.33-6.84-.45-9.39-1.32-11.2,0-.08-.08-.17-.13-.25A91.53,91.53,0,0,1,248.47,183.51Z" transform="translate(-88.39 -145.69)"/><path class="cls-6" d="M224,188.85c1.75,3.32,2.58,8.1.61,14.83,0,0-2.11,13.2-3.73,20a118.56,118.56,0,0,1-15.06,7.57c2.9-17.2-.75-25.66-4.13-29.67a115.16,115.16,0,0,0,11.41-7.24A51.25,51.25,0,0,1,224,188.85Z" transform="translate(-88.39 -145.69)"/><path class="cls-6" d="M195.08,205c3.62,3.34,6.77,8.56,6.58,16.57l-.9,11.66a137.46,137.46,0,0,1-17.4,5.17c1.19-16.07-6.42-22-12.57-24.25A134.66,134.66,0,0,0,195.08,205Z" transform="translate(-88.39 -145.69)"/><path class="cls-6" d="M119.61,209c-19.74-1.29-21.28,16.32-21.28,16.32-1.61-1.2-2.42-2-2.42-2-10.82-5.41-.78-22.41-.78-22.41a77.56,77.56,0,0,1,4.33-6.61s22.19,14.35,38.32,16C127.86,209.5,119.61,209,119.61,209Z" transform="translate(-88.39 -145.69)"/><path class="cls-6" d="M160.05,218.73s18.25,1.21,16.13,21.05c-1.27.2-2,.28-2,.28-34,5.66-57.4-3.63-69.28-10.48,0,0-.1-15.45,14.68-14.59C119.61,215,148.19,216.64,160.05,218.73Z" transform="translate(-88.39 -145.69)"/><path class="cls-7" d="M93.78,231.21a27,27,0,0,1,2.13-7.89s.81.75,2.42,2a67.87,67.87,0,0,0,6.6,4.31c11.88,6.85,35.33,16.14,69.28,10.48,0,0,.7-.08,2-.28,1.58-.25,4-.69,7.18-1.39h0a137.46,137.46,0,0,0,17.4-5.17c1.65-.61,3.35-1.28,5.08-2a118.56,118.56,0,0,0,15.06-7.57c2.61-1.55,5.21-3.25,7.76-5.11a90.89,90.89,0,0,0,13-11.44s.81-.91,2.21-2.22h0a44,44,0,0,1,6.9-5.31,0,0,0,0,1,0,0c5.66-3.48,13.12-5.95,20-1.47a17.07,17.07,0,0,1,1,10.52h0c-8.38-4.88-22.2,2.51-22.2,2.51-11.58,8.32-35.05,22.11-35.05,22.11-24.65,16.46-52.87,16-52.87,16-33.26,1.28-67.87-18-67.87-18Z" transform="translate(-88.39 -145.69)"/><path class="cls-8" d="M251.26,214.14c.63.39,15.74,9.69,8.37,0C259.63,214.13,262.44,219.44,251.26,214.14Zm-30.36,32.5c0,.33-.09,9.65-10,6.92,0,0,3.17,8.13,11.69-1,0,0,8.72-2.4,8.33-12.79C230.9,239.78,224.58,253,220.9,246.64ZM240,243.69c.56.93,13.21,21.81,10.93,3.76C251.13,249.62,251.3,258.63,240,243.69Zm16-16.24c-.77,1.07-9.39,12.94-10.39,2.53C245.63,230,244.18,246.9,256,227.45ZM93.79,231.21s34.61,19.28,67.87,18c0,0,28.22.46,52.87-16,0,0,23.47-13.79,35.05-22.11,0,0,13.82-7.39,22.2-2.51a17.64,17.64,0,0,1-1.37,4.16,10.22,10.22,0,0,1-1.4,13.4,13.61,13.61,0,0,1,.51,10.82c3.35,8-3.86,12.62-3.86,12.62a11.46,11.46,0,0,1-5.67,6.18c-1.29,5.15-8.24,5.15-8.24,5.15-1.55,6.44-11.85,7.47-11.85,7.47-.26,9.28-12.88,6.7-12.88,6.7-2.83,7.21-12.88,6.7-12.88,6.7-8,11.07-17.77,7.21-17.77,7.21-5.93,9.53-18.81,4.09-18.81,4.09-9.79,5.11-16.23-2.14-16.23-2.14-7.72,5.29-11.84-.92-11.84-.92a13.53,13.53,0,0,1-12.88-1.8c-6.44,1.29-11.34-3.35-11.34-3.35-13.65,0-17.77-5.15-17.77-5.15-10-4.9-9.79-12.62-9.79-12.62-5.92-5.93-1.8-14.43-1.8-14.43-6.18-4.38,0-14.17,0-14.17-2-1.84-2.35-4.62-2.13-7.3Zm110.46,42.21S209,270,202.09,265c0,0,4.32,12.06-11.42,3C190.67,268,193.68,277.09,204.25,273.42Zm-41.09-13.8c4,1.26,2.12-3,2.12-3-4.89-5.49-14.56,1-14.56,1C155.57,256.66,163.16,259.62,163.16,259.62Zm-31.36,2.23s10.5,9,10.36-3.22c0,0-2.1,7.56-10.22.42,0,0-6.31,4.9-8.83-3.08C123.11,256,120.87,266.89,131.8,261.85Zm-24.66-10s8.13-.56,12.47,1.82c0,0-7.28-9.1-13.59-5.32C106,248.4,102.94,251.9,107.14,251.9Z" transform="translate(-88.39 -145.69)"/><path class="cls-9" d="M259.63,214.13c7.37,9.7-7.74.4-8.37,0C262.44,219.44,259.63,214.13,259.63,214.13Z" transform="translate(-88.39 -145.69)"/><path class="cls-9" d="M251,247.45c2.28,18.05-10.37-2.83-10.93-3.76C251.3,258.63,251.13,249.62,251,247.45Z" transform="translate(-88.39 -145.69)"/><path class="cls-9" d="M245.63,230c1,10.41,9.62-1.46,10.39-2.53C244.18,246.9,245.63,230,245.63,230Z" transform="translate(-88.39 -145.69)"/><path class="cls-9" d="M230.9,239.78c.39,10.39-8.33,12.79-8.33,12.79-8.52,9.12-11.69,1-11.69,1,9.93,2.73,10-6.59,10-6.92C224.58,253,230.9,239.78,230.9,239.78Z" transform="translate(-88.39 -145.69)"/><path class="cls-9" d="M202.09,265c6.9,5,2.16,8.39,2.16,8.39-10.57,3.67-13.58-5.39-13.58-5.39C206.41,277.09,202.09,265,202.09,265Z" transform="translate(-88.39 -145.69)"/><path class="cls-9" d="M165.28,256.61s1.89,4.27-2.12,3c0,0-7.59-3-12.44-2C150.72,257.63,160.39,251.12,165.28,256.61Z" transform="translate(-88.39 -145.69)"/><path class="cls-9" d="M131.94,259.05c8.12,7.14,10.22-.42,10.22-.42.14,12.18-10.36,3.22-10.36,3.22-10.93,5-8.69-5.88-8.69-5.88C125.63,264,131.94,259.05,131.94,259.05Z" transform="translate(-88.39 -145.69)"/><path class="cls-9" d="M119.61,253.72c-4.34-2.38-12.47-1.82-12.47-1.82-4.2,0-1.12-3.5-1.12-3.5C112.33,244.62,119.61,253.72,119.61,253.72Z" transform="translate(-88.39 -145.69)"/><path class="cls-10" d="M121.73,171.82a117.71,117.71,0,0,0-16.8,15.65c-1.41,1.61-2.82,3.31-4.18,5.09q-.65.85-1.29,1.74a77.56,77.56,0,0,0-4.33,6.61s-10,17,.78,22.41a27,27,0,0,0-2.13,7.89c-.22,2.68.18,5.46,2.13,7.3,0,0-6.18,9.79,0,14.17,0,0-4.12,8.5,1.8,14.43,0,0-.26,7.72,9.79,12.62,0,0,4.12,5.15,17.77,5.15,0,0,4.9,4.64,11.34,3.35a13.53,13.53,0,0,0,12.88,1.8s4.12,6.21,11.84.92c0,0,6.44,7.25,16.23,2.14,0,0,12.88,5.44,18.81-4.09,0,0,9.78,3.86,17.77-7.21,0,0,10.05.51,12.88-6.7,0,0,12.62,2.58,12.88-6.7,0,0,10.3-1,11.85-7.47,0,0,6.95,0,8.24-5.15a11.46,11.46,0,0,0,5.67-6.18s7.21-4.64,3.86-12.62a13.61,13.61,0,0,0-.51-10.82,10.22,10.22,0,0,0,1.4-13.4,17.64,17.64,0,0,0,1.37-4.16" transform="translate(-88.39 -145.69)"/><path class="cls-10" d="M176.36,150.64c-12.89,2.16-30,6.27-43.82,14a67.17,67.17,0,0,0-8.3,5.39s-.93.63-2.5,1.82" transform="translate(-88.39 -145.69)"/><path class="cls-10" d="M198.25,148.25c-.88,0-1.76.06-2.66.11a183.82,183.82,0,0,0-19.22,2.28" transform="translate(-88.39 -145.69)"/><path class="cls-10" d="M260.07,162.49c-14.47-8.08-34.91-15.05-61.8-14.24" transform="translate(-88.39 -145.69)"/><path class="cls-10" d="M274,171.81a103.85,103.85,0,0,0-13.9-9.3" transform="translate(-88.39 -145.69)"/><path class="cls-10" d="M289.07,187.76c-.52-.88-1.12-1.83-1.78-2.82A75.08,75.08,0,0,0,274,171.83" transform="translate(-88.39 -145.69)"/><path class="cls-10" d="M271.79,208.59a17.07,17.07,0,0,0-1-10.52s1.12.47,2.85,1.08c.8.28,1.74.6,2.76.91,8.62,2.65,23.08,5.16,12.66-12.3" transform="translate(-88.39 -145.69)"/><path class="cls-10" d="M183.36,238.39c-3.13.7-5.6,1.14-7.18,1.39-1.27.2-2,.28-2,.28-34,5.66-57.4-3.63-69.28-10.48a67.87,67.87,0,0,1-6.6-4.31c-1.61-1.2-2.42-2-2.42-2" transform="translate(-88.39 -145.69)"/><path class="cls-10" d="M243.91,204.87c-1.4,1.31-2.21,2.22-2.21,2.22a90.89,90.89,0,0,1-13,11.44c-2.55,1.86-5.15,3.56-7.76,5.11a118.56,118.56,0,0,1-15.06,7.57c-1.73.72-3.43,1.39-5.08,2a137.46,137.46,0,0,1-17.4,5.17" transform="translate(-88.39 -145.69)"/><path class="cls-10" d="M250.82,199.55a44,44,0,0,0-6.9,5.31" transform="translate(-88.39 -145.69)"/><path class="cls-10" d="M270.81,198.07c-6.86-4.48-14.32-2-20,1.47" transform="translate(-88.39 -145.69)"/><path class="cls-11" d="M119.61,253.72s-7.28-9.1-13.59-5.32c0,0-3.08,3.5,1.12,3.5C107.14,251.9,115.27,251.34,119.61,253.72Z" transform="translate(-88.39 -145.69)"/><path class="cls-11" d="M150.72,257.63s9.67-6.51,14.56-1c0,0,1.89,4.27-2.12,3C163.16,259.62,155.57,256.66,150.72,257.63Z" transform="translate(-88.39 -145.69)"/><path class="cls-11" d="M123.11,256s-2.24,10.92,8.69,5.88c0,0,10.5,9,10.36-3.22,0,0-2.1,7.56-10.22.42C131.94,259.05,125.63,264,123.11,256Z" transform="translate(-88.39 -145.69)"/><path class="cls-11" d="M190.67,268s3,9.06,13.58,5.39c0,0,4.74-3.42-2.16-8.39C202.09,265,206.41,277.09,190.67,268Z" transform="translate(-88.39 -145.69)"/><line class="cls-10" x1="94.97" y1="92.69" x2="94.97" y2="92.7"/><line class="cls-11" x1="132.51" y1="100.95" x2="132.51" y2="100.94"/><path class="cls-11" d="M220.9,246.64c0,.33-.09,9.65-10,6.92,0,0,3.17,8.13,11.69-1,0,0,8.72-2.4,8.33-12.79C230.9,239.78,224.58,253,220.9,246.64Z" transform="translate(-88.39 -145.69)"/><path class="cls-11" d="M250.91,247c0,.15,0,.29.05.43.17,2.17.34,11.18-10.93-3.76l0,0" transform="translate(-88.39 -145.69)"/><path class="cls-11" d="M240,243.69c.56.93,13.21,21.81,10.93,3.76" transform="translate(-88.39 -145.69)"/><path class="cls-11" d="M256,227.45l0,0,0-.06" transform="translate(-88.39 -145.69)"/><path class="cls-11" d="M245.63,230s-1.45,16.92,10.39-2.53C255.25,228.52,246.63,240.39,245.63,230Z" transform="translate(-88.39 -145.69)"/><path class="cls-11" d="M251.26,214.14c.63.39,15.74,9.69,8.37,0C259.63,214.13,262.44,219.44,251.26,214.14Z" transform="translate(-88.39 -145.69)"/><path class="cls-11" d="M251.24,214.13h0" transform="translate(-88.39 -145.69)"/><line class="cls-10" x1="183.39" y1="62.9" x2="183.4" y2="62.9"/><path class="cls-10" d="M121.73,171.82h0" transform="translate(-88.39 -145.69)"/><line class="cls-10" x1="155.53" y1="59.17" x2="155.52" y2="59.18"/><path class="cls-10" d="M176.36,150.64h0" transform="translate(-88.39 -145.69)"/><path class="cls-10" d="M250.83,199.54a0,0,0,0,0,0,0" transform="translate(-88.39 -145.69)"/><path class="cls-10" d="M198.25,148.25h0" transform="translate(-88.39 -145.69)"/><path class="cls-10" d="M260.07,162.49l0,0" transform="translate(-88.39 -145.69)"/><path class="cls-10" d="M274,171.81v0" transform="translate(-88.39 -145.69)"/><line class="cls-10" x1="200.68" y1="42.07" x2="200.69" y2="42.07"/><path class="cls-12" d="M398.32,322.89c.74.83,1.41,1.59,2,2.34-2.3.34-4.42.76-6.37,1.24a35.18,35.18,0,0,0-5-4.09A77,77,0,0,1,398.32,322.89Z" transform="translate(-88.39 -145.69)"/><path class="cls-12" d="M370,327.82a42.26,42.26,0,0,1,7.14,5.34c-1.6.8-3.61,1.8-6.28,3.11a14.74,14.74,0,0,0-5.44-3.7,36.69,36.69,0,0,0-6.89-3.26c1.38-.5,2.8-1,4.22-1.49s3.07-1.05,4.65-1.57C368.27,326.72,369.13,327.24,370,327.82Z" transform="translate(-88.39 -145.69)"/><path class="cls-12" d="M346.47,348.75l.26.1c-2.28,1.42-4.16,2.62-6.49,3.78A23.35,23.35,0,0,0,334,350c-3-1.5-8.54-2.75-14.69-3.75,1.31-.57,2.85-1.26,4.74-2.11,1.15-.51,2.08-.93,3.93-1.81C335.31,344,342.88,346.2,346.47,348.75Z" transform="translate(-88.39 -145.69)"/><path class="cls-13" d="M427.38,335.85a26,26,0,0,1-1.84,14.79c-1-.31-2-.62-2.75-.91a45.41,45.41,0,0,0-.58-14.73Q424.75,335.36,427.38,335.85Z" transform="translate(-88.39 -145.69)"/><path class="cls-13" d="M423.13,322.39a44.14,44.14,0,0,1,4.25,13.46q-2.64-.5-5.17-.85h0c-3.1-14.78-13-21.93-13-21.93A102.08,102.08,0,0,1,423.13,322.39Z" transform="translate(-88.39 -145.69)"/><path class="cls-13" d="M404.39,333.78c1.08,7.34-3,14.14-4.44,16.34h0a44.33,44.33,0,0,0-6.89,5.3c4.31-10.27,5-17,4.55-21.35Q400.85,333.83,404.39,333.78Z" transform="translate(-88.39 -145.69)"/><path class="cls-13" d="M403.75,331.09a15.66,15.66,0,0,1,.64,2.69q-3.54,0-6.79.3c-.58-5.17-2.9-6.85-2.9-6.85-.23-.26-.47-.51-.72-.76,1.95-.48,4.07-.9,6.37-1.24A17.89,17.89,0,0,1,403.75,331.09Z" transform="translate(-88.39 -145.69)"/><path class="cls-13" d="M397.89,322.4l.43.49a77,77,0,0,0-9.36-.51,92.68,92.68,0,0,0-14.06-7.63c-22.92-11.88-49.42-13.53-49.42-13.53h0a184.15,184.15,0,0,1,19.24-2.28c.9-.05,1.78-.08,2.66-.11h0a116.52,116.52,0,0,1,20,5.21,92,92,0,0,1,17.39,8C393.06,317.08,396.93,321.33,397.89,322.4Z" transform="translate(-88.39 -145.69)"/><path class="cls-13" d="M380.16,337.41c.86,1.82,1.65,4.36,1.32,11.2a81.46,81.46,0,0,1-3.7,20.5c-2.56,1.86-5.16,3.56-7.76,5.11h0c1.63-6.75,3.74-19.95,3.74-19.95,2-6.73,1.13-11.52-.62-14.84,2-.77,4.32-1.55,6.89-2.27Z" transform="translate(-88.39 -145.69)"/><path class="cls-13" d="M377.16,333.16a15.34,15.34,0,0,1,2.87,4c-2.57.72-4.87,1.5-6.89,2.27a14.06,14.06,0,0,0-2.26-3.15C373.55,335,375.56,334,377.16,333.16Z" transform="translate(-88.39 -145.69)"/><path class="cls-13" d="M357.35,321.76a80.34,80.34,0,0,1,10.07,4.49c-1.58.52-3.17,1.06-4.65,1.57s-2.84,1-4.22,1.49A175.82,175.82,0,0,0,340.92,324c-25.7-8.32-70.06-1.56-70.06-1.56,1.58-1.2,2.51-1.83,2.51-1.83a67.17,67.17,0,0,1,8.3-5.39A125.59,125.59,0,0,1,315,312.34a126.93,126.93,0,0,1,28.81,4.79A137.16,137.16,0,0,1,357.35,321.76Z" transform="translate(-88.39 -145.69)"/><path class="cls-13" d="M350.84,352.11c3.37,4,7,12.46,4.12,29.67h0q-2.59,1.08-5.08,2l.91-11.66c.19-8-3-13.23-6.58-16.57C346.37,354.52,348.59,353.37,350.84,352.11Z" transform="translate(-88.39 -145.69)"/><path class="cls-13" d="M346.73,348.85a11.88,11.88,0,0,1,4.11,3.26c-2.25,1.26-4.47,2.41-6.63,3.45a23.2,23.2,0,0,0-4-2.93C342.57,351.47,344.45,350.27,346.73,348.85Z" transform="translate(-88.39 -145.69)"/><path class="cls-13" d="M309.39,339s9.12,1.23,18.56,3.33c-1.85.88-2.78,1.3-3.93,1.81-1.89.85-3.43,1.54-4.74,2.11-13.2-2.14-29.25-3.15-29.25-3.15-18.28-.86-40.16,0-40.16,0q2.06-2.68,4.19-5.1S284.37,334.08,309.39,339Z" transform="translate(-88.39 -145.69)"/><path class="cls-13" d="M319.91,364.71c6.15,2.2,13.77,8.17,12.57,24.25h0c-3.12.71-5.59,1.14-7.17,1.39,2.12-19.85-16.14-21.06-16.14-21.06-11.86-2.08-40.44-3.73-40.44-3.73-14.78-.87-14.67,14.58-14.67,14.58a65.8,65.8,0,0,1-6.61-4.31s1.55-17.61,21.28-16.31c0,0,8.46.56,18.56,1.38,8.68.71,18.56,1.6,25.33,2.5A21.28,21.28,0,0,1,319.91,364.71Z" transform="translate(-88.39 -145.69)"/><path class="cls-14" d="M394.7,327.23s2.32,1.68,2.9,6.85A92.08,92.08,0,0,0,380,337.15a15.34,15.34,0,0,0-2.87-4c3.3-1.65,4.83-2.44,6.69-3.26A61.14,61.14,0,0,1,394,326.47C394.23,326.72,394.47,327,394.7,327.23Z" transform="translate(-88.39 -145.69)"/><path class="cls-14" d="M370.88,336.27a14.06,14.06,0,0,1,2.26,3.15,51.25,51.25,0,0,0-10.9,5.45,113.89,113.89,0,0,1-11.4,7.24,11.88,11.88,0,0,0-4.11-3.26c2.63-1.64,5.77-3.57,10.69-6.09,1.86-1,.78-.35,7.83-3.76Z" transform="translate(-88.39 -145.69)"/><path class="cls-15" d="M407.91,324.48c-2.71.14-5.22.4-7.56.75-.62-.75-1.29-1.51-2-2.34A91.07,91.07,0,0,1,407.91,324.48Z" transform="translate(-88.39 -145.69)"/><path class="cls-15" d="M394,326.47a61.14,61.14,0,0,0-10.13,3.43c-1.86.82-3.39,1.61-6.69,3.26a42.26,42.26,0,0,0-7.14-5.34c-.89-.58-1.75-1.1-2.6-1.57,2-.67,4-1.3,5.74-1.77a61.67,61.67,0,0,1,15.8-2.1A35.18,35.18,0,0,1,394,326.47Z" transform="translate(-88.39 -145.69)"/><path class="cls-15" d="M370.88,336.27,365.25,339c-7.05,3.41-6,2.8-7.83,3.76-4.92,2.52-8.06,4.45-10.69,6.09l-.26-.1c-3.59-2.55-11.16-4.73-18.52-6.38l.46-.22c2.16-1,5.48-2.67,11.38-5.6,0,0,8.6-3.61,18.76-7.24a36.69,36.69,0,0,1,6.89,3.26A14.74,14.74,0,0,1,370.88,336.27Z" transform="translate(-88.39 -145.69)"/><path class="cls-15" d="M340.24,352.63c-1.1.55-2.3,1.1-3.69,1.65a44,44,0,0,1-11.07,3.21c-8.43,1.17-15.35-.68-21.93-2.43-3.06-.82-6.51-1.92-9.19-2.82s-4.59-1.6-4.59-1.6a67.85,67.85,0,0,0,24.29-2.32,50.26,50.26,0,0,0,5.22-2c6.15,1,11.67,2.25,14.69,3.75A23.35,23.35,0,0,1,340.24,352.63Z" transform="translate(-88.39 -145.69)"/><path class="cls-16" d="M436.42,335.51c.67,1,1.26,1.94,1.79,2.83-3.74-1-7.35-1.84-10.83-2.49a44.14,44.14,0,0,0-4.25-13.46C432.11,329.53,436.42,335.51,436.42,335.51Z" transform="translate(-88.39 -145.69)"/><path class="cls-16" d="M347.38,298.82c26.89-.82,47.33,6.15,61.8,14.24,0,0,9.93,7.15,13,21.93a115.37,115.37,0,0,0-17.82-1.21,15.66,15.66,0,0,0-.64-2.69,17.89,17.89,0,0,0-3.4-5.86c2.34-.35,4.85-.61,7.56-.75a91.07,91.07,0,0,0-9.59-1.59l-.43-.49c-1-1.07-4.83-5.32-13.14-10.32a92,92,0,0,0-17.39-8,116.52,116.52,0,0,0-20-5.21Z" transform="translate(-88.39 -145.69)"/><path class="cls-16" d="M374.9,314.75A92.68,92.68,0,0,1,389,322.38a61.67,61.67,0,0,0-15.8,2.1c-1.73.47-3.72,1.1-5.74,1.77a80.34,80.34,0,0,0-10.07-4.49,137.16,137.16,0,0,0-13.59-4.63A126.93,126.93,0,0,0,315,312.34a125.59,125.59,0,0,0-33.28,2.84c13.84-7.7,30.92-11.81,43.81-14h0S352,302.87,374.9,314.75Z" transform="translate(-88.39 -145.69)"/><path class="cls-16" d="M340.92,324a175.82,175.82,0,0,1,17.63,5.35c-10.16,3.63-18.76,7.24-18.76,7.24-5.9,2.93-9.22,4.56-11.38,5.6l-.46.22c-9.44-2.1-18.56-3.33-18.56-3.33-25-5-55.33-1-55.33-1a117.5,117.5,0,0,1,16.8-15.64S315.22,315.64,340.92,324Z" transform="translate(-88.39 -145.69)"/><path class="cls-16" d="M314.06,348.32a67.85,67.85,0,0,1-24.29,2.32s1.91.7,4.59,1.6,6.13,2,9.19,2.82c6.58,1.75,13.5,3.6,21.93,2.43a44,44,0,0,0,11.07-3.21c1.39-.55,2.59-1.1,3.69-1.65a23.2,23.2,0,0,1,4,2.93,134,134,0,0,1-24.3,9.14h0a21.28,21.28,0,0,0-7.29-1.3c-6.77-.9-16.65-1.79-25.33-2.5-15.94-1.43-38.11-15.65-38.7-16,.42-.59.85-1.16,1.28-1.73,0,0,21.88-.86,40.16,0,0,0,16.05,1,29.25,3.15A50.26,50.26,0,0,1,314.06,348.32Z" transform="translate(-88.39 -145.69)"/><path class="cls-17" d="M438.21,338.34c10.41,17.46-4.06,15-12.67,12.3a26,26,0,0,0,1.84-14.79C430.86,336.5,434.47,337.32,438.21,338.34Z" transform="translate(-88.39 -145.69)"/><path class="cls-17" d="M422.21,335a45.41,45.41,0,0,1,.58,14.73c-1.74-.61-2.86-1.08-2.86-1.08-6.86-4.49-14.32-2-20,1.47,1.43-2.2,5.52-9,4.44-16.34A115.37,115.37,0,0,1,422.21,335Z" transform="translate(-88.39 -145.69)"/><path class="cls-17" d="M397.6,334.08c.49,4.32-.24,11.08-4.55,21.35h0c-1.4,1.31-2.21,2.22-2.21,2.22a91.58,91.58,0,0,1-13.05,11.45,81.46,81.46,0,0,0,3.7-20.5c.33-6.84-.46-9.38-1.32-11.2l-.13-.26A92.08,92.08,0,0,1,397.6,334.08Z" transform="translate(-88.39 -145.69)"/><path class="cls-17" d="M373.14,339.42c1.75,3.32,2.59,8.11.62,14.84,0,0-2.11,13.2-3.74,19.95h0A120.58,120.58,0,0,1,355,381.79h0c2.9-17.21-.75-25.67-4.12-29.67a113.89,113.89,0,0,0,11.4-7.24A51.25,51.25,0,0,1,373.14,339.42Z" transform="translate(-88.39 -145.69)"/><path class="cls-17" d="M344.21,355.56c3.62,3.34,6.77,8.56,6.58,16.57l-.91,11.66a137.73,137.73,0,0,1-17.4,5.18h0c1.2-16.08-6.42-22-12.57-24.25h0A134,134,0,0,0,344.21,355.56Z" transform="translate(-88.39 -145.69)"/><path class="cls-17" d="M309.17,369.3s18.26,1.21,16.14,21.06c-1.27.2-2,.28-2,.28C289.4,396.3,266,387,254.06,380.15c0,0-.11-15.45,14.67-14.58C268.73,365.57,297.31,367.22,309.17,369.3Z" transform="translate(-88.39 -145.69)"/><path class="cls-17" d="M268.73,359.53c-19.73-1.3-21.28,16.31-21.28,16.31-1.61-1.2-2.42-1.95-2.42-1.95-10.82-5.41-.77-22.41-.77-22.41a77.56,77.56,0,0,1,4.33-6.61c.59.39,22.76,14.61,38.7,16C277.19,360.09,268.73,359.53,268.73,359.53Z" transform="translate(-88.39 -145.69)"/><path class="cls-18" d="M242.91,381.78a27.05,27.05,0,0,1,2.12-7.89s.81.75,2.42,1.95a65.8,65.8,0,0,0,6.61,4.31C266,387,289.4,396.3,323.34,390.64c0,0,.7-.08,2-.28,1.58-.25,4.05-.68,7.17-1.39a137.73,137.73,0,0,0,17.4-5.18q2.49-.92,5.08-2A120.58,120.58,0,0,0,370,374.22c2.6-1.55,5.2-3.25,7.76-5.11a91.58,91.58,0,0,0,13.05-11.45s.81-.91,2.21-2.22h0a44.33,44.33,0,0,1,6.89-5.3h0c5.66-3.48,13.12-6,20-1.47a17.12,17.12,0,0,1,1,10.51c-8.39-4.89-22.22,2.52-22.22,2.52-11.58,8.32-35,22.11-35,22.11-24.66,16.46-52.87,16-52.87,16C277.52,401.07,242.91,381.78,242.91,381.78Z" transform="translate(-88.39 -145.69)"/><path class="cls-8" d="M370,397.21c0,.33-.09,9.65-10,6.93,0,0,3.18,8.13,11.7-1,0,0,8.72-2.4,8.32-12.79C380,390.36,373.7,403.54,370,397.21Zm19.14-2.95c.56.94,13.28,21.95,10.91,3.59C400.23,399.61,400.78,409.68,389.16,394.26Zm11.22-29.55c.63.39,15.75,9.69,8.38,0C408.76,364.7,411.56,370,400.38,364.71ZM405.14,378c-.77,1.08-9.38,13-10.39,2.54C394.75,380.56,393.3,397.48,405.14,378Zm14.4-14.69a10.23,10.23,0,0,1-1.41,13.4,13.59,13.59,0,0,1,.51,10.81c3.35,8-3.86,12.63-3.86,12.63a11.47,11.47,0,0,1-5.67,6.18c-1.28,5.15-8.24,5.15-8.24,5.15C399.33,417.94,389,419,389,419c-.26,9.27-12.88,6.7-12.88,6.7-2.83,7.21-12.88,6.69-12.88,6.69-8,11.08-17.77,7.22-17.77,7.22-5.92,9.53-18.8,4.08-18.8,4.08-9.79,5.12-16.23-2.14-16.23-2.14-7.73,5.3-11.85-.91-11.85-.91a13.53,13.53,0,0,1-12.88-1.81c-6.44,1.29-11.33-3.34-11.33-3.34-13.66,0-17.78-5.16-17.78-5.16-10-4.89-9.79-12.62-9.79-12.62-5.92-5.92-1.8-14.42-1.8-14.42-6.18-4.38,0-14.17,0-14.17-1.95-1.85-2.34-4.63-2.12-7.31,0,0,34.61,19.29,67.88,18,0,0,28.21.46,52.87-16,0,0,23.46-13.79,35-22.11,0,0,13.83-7.41,22.22-2.52A17.89,17.89,0,0,1,419.54,363.33ZM353.37,424s4.75-3.42-2.15-8.4c0,0,4.31,12.06-11.43,3C339.79,418.61,342.81,427.66,353.37,424Zm-38.5-11.17a5.61,5.61,0,1,0-5.61,5.61A5.61,5.61,0,0,0,314.87,412.83Zm-32-.4s10.5,9,10.36-3.23c0,0-2.1,7.57-10.22.42,0,0-6.31,4.91-8.83-3.08C274.21,406.54,272,417.47,282.9,412.43Zm-13.79-8.79a5.61,5.61,0,1,0-5.61,5.61A5.61,5.61,0,0,0,269.11,403.64Z" transform="translate(-88.39 -145.69)"/><path class="cls-9" d="M408.76,364.7c7.37,9.7-7.75.4-8.38,0C411.56,370,408.76,364.7,408.76,364.7Z" transform="translate(-88.39 -145.69)"/><path class="cls-9" d="M400.07,397.85c2.37,18.36-10.35-2.65-10.91-3.59C400.78,409.68,400.23,399.61,400.07,397.85Z" transform="translate(-88.39 -145.69)"/><path class="cls-9" d="M394.75,380.56c1,10.41,9.62-1.46,10.39-2.54C393.3,397.48,394.75,380.56,394.75,380.56Z" transform="translate(-88.39 -145.69)"/><path class="cls-9" d="M380,390.36c.4,10.39-8.32,12.79-8.32,12.79-8.52,9.12-11.7,1-11.7,1,9.93,2.72,10-6.6,10-6.93C373.7,403.54,380,390.36,380,390.36Z" transform="translate(-88.39 -145.69)"/><path class="cls-9" d="M351.22,415.6c6.9,5,2.15,8.4,2.15,8.4-10.56,3.66-13.58-5.39-13.58-5.39C355.53,427.66,351.22,415.6,351.22,415.6Z" transform="translate(-88.39 -145.69)"/><circle class="cls-9" cx="220.87" cy="267.14" r="5.61"/><path class="cls-9" d="M282.9,412.43c-10.93,5-8.69-5.89-8.69-5.89,2.52,8,8.83,3.08,8.83,3.08,8.12,7.15,10.22-.42,10.22-.42C293.4,421.39,282.9,412.43,282.9,412.43Z" transform="translate(-88.39 -145.69)"/><circle class="cls-9" cx="175.11" cy="257.95" r="5.61"/><path class="cls-10" d="M245,373.89a27.05,27.05,0,0,0-2.12,7.89c-.22,2.68.17,5.46,2.12,7.31,0,0-6.18,9.79,0,14.17,0,0-4.12,8.5,1.8,14.42,0,0-.25,7.73,9.79,12.62,0,0,4.12,5.16,17.78,5.16,0,0,4.89,4.63,11.33,3.34a13.53,13.53,0,0,0,12.88,1.81s4.12,6.21,11.85.91c0,0,6.44,7.26,16.23,2.14,0,0,12.88,5.45,18.8-4.08,0,0,9.79,3.86,17.77-7.22,0,0,10.05.52,12.88-6.69,0,0,12.62,2.57,12.88-6.7,0,0,10.31-1,11.85-7.47,0,0,7,0,8.24-5.15a11.47,11.47,0,0,0,5.67-6.18s7.21-4.64,3.86-12.63a13.59,13.59,0,0,0-.51-10.81,10.23,10.23,0,0,0,1.41-13.4,17.89,17.89,0,0,0,1.38-4.17,17.12,17.12,0,0,0-1-10.51s1.12.47,2.86,1.08c.8.29,1.73.6,2.75.91,8.61,2.65,23.08,5.16,12.67-12.3-.53-.89-1.12-1.83-1.79-2.83,0,0-4.31-6-13.29-13.12a102.08,102.08,0,0,0-13.95-9.33c-14.47-8.09-34.91-15.06-61.8-14.24-.88,0-1.76.06-2.66.11a184.15,184.15,0,0,0-19.24,2.28c-12.89,2.16-30,6.27-43.81,14a67.17,67.17,0,0,0-8.3,5.39s-.93.63-2.51,1.83A117.5,117.5,0,0,0,254.06,338q-2.13,2.41-4.19,5.1c-.43.57-.86,1.14-1.28,1.73a77.56,77.56,0,0,0-4.33,6.61S234.21,368.48,245,373.89Z" transform="translate(-88.39 -145.69)"/><path class="cls-10" d="M393,355.44c-1.4,1.31-2.21,2.22-2.21,2.22a91.58,91.58,0,0,1-13.05,11.45c-2.56,1.86-5.16,3.56-7.76,5.11A120.58,120.58,0,0,1,355,381.79q-2.59,1.08-5.08,2a137.73,137.73,0,0,1-17.4,5.18c-3.12.71-5.59,1.14-7.17,1.39-1.27.2-2,.28-2,.28C289.4,396.3,266,387,254.06,380.15a65.8,65.8,0,0,1-6.61-4.31c-1.61-1.2-2.42-1.95-2.42-1.95" transform="translate(-88.39 -145.69)"/><path class="cls-10" d="M399.94,350.13a44.33,44.33,0,0,0-6.89,5.3" transform="translate(-88.39 -145.69)"/><path class="cls-10" d="M419.93,348.65c-6.86-4.49-14.32-2-20,1.47" transform="translate(-88.39 -145.69)"/><path class="cls-11" d="M274.21,406.54s-2.24,10.93,8.69,5.89c0,0,10.5,9,10.36-3.23,0,0-2.1,7.57-10.22.42C283,409.62,276.73,414.53,274.21,406.54Z" transform="translate(-88.39 -145.69)"/><path class="cls-11" d="M339.79,418.61s3,9.05,13.58,5.39c0,0,4.75-3.42-2.15-8.4C351.22,415.6,355.53,427.66,339.79,418.61Z" transform="translate(-88.39 -145.69)"/><line class="cls-11" x1="281.63" y1="251.52" x2="281.63" y2="251.51"/><path class="cls-11" d="M370,397.21c0,.33-.09,9.65-10,6.93,0,0,3.18,8.13,11.7-1,0,0,8.72-2.4,8.32-12.79C380,390.36,373.7,403.54,370,397.21Z" transform="translate(-88.39 -145.69)"/><path class="cls-11" d="M400,397.6l0,.25c.16,1.76.71,11.83-10.91-3.59l0,0" transform="translate(-88.39 -145.69)"/><path class="cls-11" d="M389.16,394.26c.56.94,13.28,21.95,10.91,3.59" transform="translate(-88.39 -145.69)"/><path class="cls-11" d="M405.14,378l0,0,0-.06" transform="translate(-88.39 -145.69)"/><path class="cls-11" d="M394.75,380.56s-1.45,16.92,10.39-2.54C404.37,379.1,395.76,391,394.75,380.56Z" transform="translate(-88.39 -145.69)"/><path class="cls-11" d="M400.38,364.71c.63.39,15.75,9.69,8.38,0C408.76,364.7,411.56,370,400.38,364.71Z" transform="translate(-88.39 -145.69)"/><path class="cls-11" d="M400.36,364.7h0" transform="translate(-88.39 -145.69)"/><line class="cls-10" x1="304.66" y1="209.74" x2="304.65" y2="209.75"/><path class="cls-10" d="M400,350.12h0" transform="translate(-88.39 -145.69)"/><circle class="cls-11" cx="175.11" cy="257.95" r="5.61"/><circle class="cls-11" cx="220.87" cy="267.14" r="5.61"/></svg>