<?xml version="1.0" encoding="utf-8"?>
<!-- Generator: Adobe Illustrator 24.1.1, SVG Export Plug-In . SVG Version: 6.00 Build 0)  -->
<svg version="1.1" id="Livello_1" xmlns="http://www.w3.org/2000/svg" xmlns:xlink="http://www.w3.org/1999/xlink" x="0px" y="0px"
	 viewBox="0 0 428 80" style="enable-background:new 0 0 428 80;" xml:space="preserve">
<style type="text/css">
	.st0{fill:#FFFFFF;}
</style>
<g>
	<path class="st0" d="M43.02,32.09c0,6.51-1.78,13.6-5.31,21.27c-2.83,6.16-6.35,11.97-10.58,17.39c-3.76,4.65-6.55,7.4-8.33,8.17
		c-0.89,0.35-1.9,0.54-3.06,0.54c-2.63,0-5.62-0.85-8.95-2.52c-2.98-1.39-5.23-2.87-6.74-4.49V7.92c0.19-1.55,1.08-2.48,2.67-2.79
		C2.93,5.05,4.4,5.28,7.23,5.75c0.54,0.08,2.32-0.58,5.35-1.9s5.62-1.98,7.75-1.98c2.63,0,5.15,0.7,7.52,2.05
		c1.36,0.85,3.45,2.44,6.2,4.84c3.99,3.49,6.59,7.13,7.79,10.92C42.64,22.29,43.02,26.44,43.02,32.09z M28.15,14.81
		c-0.31-0.19-0.77-0.27-1.43-0.27c-3.18,0-6.97,1.39-11.39,4.11v40.37c4.07-2.32,7.52-8.06,10.42-17.12
		c2.44-7.83,3.68-14.95,3.68-21.35C29.43,17.18,29,15.28,28.15,14.81z"/>
	<path class="st0" d="M90.02,65.76c-0.19,1.01-0.7,2.09-1.59,3.29c-0.85,1.16-1.63,1.86-2.29,2.09c-0.19,0.08-0.5-0.04-0.97-0.31
		c-0.46-0.27-0.85-0.39-1.16-0.39c-0.12,0-0.23,0.04-0.35,0.08c-1.86,0.54-3.72,1.24-5.58,2.17c-4.42,2.01-8.48,4.65-12.2,7.79
		c-5.97-2.44-9.22-3.8-9.76-4.03c-3.72-1.63-5.58-2.83-5.58-3.6V5.4c0-0.43,0.7-1.01,2.09-1.78s2.44-1.12,3.1-1.08
		c0.74,0.08,2.17,0.54,4.3,1.39c2.17,0.85,3.91,1.32,5.31,1.32c1.78,0,4.15-0.81,7.01-2.4c2.63-1.55,4.26-2.21,4.92-1.98
		c1.43,0.46,3.56,2.05,6.39,4.73s4.38,4.57,4.61,5.69c0.12,0.54-0.43,1.47-1.67,2.79s-2.25,1.98-3.02,1.98
		c-0.66,0-1.12-0.08-1.43-0.27s-0.5-0.23-0.62-0.19c-2.17,0.46-4.15,1.05-6,1.7c-4.42,1.51-7.67,3.22-9.76,5.19v14.61
		c2.09-1.08,4.8-2.17,8.17-3.33c0.97-0.12,2.98,1.2,6.04,3.99c3.1,2.79,4.61,4.73,4.61,5.77c0,0.66-0.43,1.43-1.24,2.32
		c-0.85,0.89-1.63,1.47-2.44,1.7c-0.58,0-1.63,0.08-3.14,0.19c-2.29,0.43-6.28,2.32-12.01,5.73v9.41c1.78-1.08,4.22-2.36,7.32-3.8
		c3.06-1.47,4.96-2.21,5.69-2.21c0.85,0,2.94,1.32,6.31,3.91C88.51,63.36,90.13,65.02,90.02,65.76z"/>
	<path class="st0" d="M136.12,65.21c-0.74,2.83-1.86,4.53-3.41,5.11c-0.46,0.19-1.12,0.19-1.94,0.08c-0.81-0.12-1.39-0.08-1.74,0.08
		l-13.29,5.58c-0.43,0.19-0.85,0.7-1.32,1.51c-0.46,0.85-0.89,1.32-1.32,1.43c-1.32,0.46-4.11,0.04-8.33-1.36
		c-4.26-1.36-6.82-2.67-7.71-3.87c-0.66-0.97-0.85-2.44-0.62-4.49c0.12-0.97,0.19-1.7,0.19-2.25V6.83
		c-0.12-0.58-0.35-1.12-0.74-1.51c-0.35-0.43-0.54-0.77-0.54-1.08c0.12-1.12,1.16-1.98,3.14-2.52c1.24-0.31,3.99,0.15,8.17,1.36
		c4.73,1.39,7.13,2.98,7.17,4.84c0,0.46-0.35,1.2-0.97,2.17c-0.66,0.97-0.97,1.67-0.97,2.17v49.59l9.34-4.03
		c0.54-0.46,1.55-1.01,3.06-1.63c0.85-0.12,3.1,1.16,6.74,3.8C134.65,62.62,136.35,64.36,136.12,65.21z"/>
	<path class="st0" d="M156.92,6.56c0,0.43-0.12,0.97-0.39,1.7c-0.27,0.7-0.43,1.16-0.5,1.36c-0.35,1.2-0.74,3.06-1.08,5.58v55.05
		c0,0.74,0.19,1.36,0.54,1.94c0.35,0.58,0.54,1.05,0.54,1.39c0,3.84-0.74,5.89-2.17,6.2c-0.54,0.12-2.63-0.27-6.28-1.16
		c-3.84-0.97-6.04-1.7-6.62-2.25c-1.32-1.12-1.98-2.17-1.98-3.14c0-0.23,0.12-0.5,0.35-0.81s0.35-0.81,0.35-1.51V7.65
		c0-0.35-0.12-0.74-0.31-1.12c-0.19-0.39-0.31-0.77-0.31-1.12c0.12-1.43,1.24-2.4,3.33-2.87c0.66-0.12,2.01-0.12,4.11,0
		c2.56,0.19,4.73,0.5,6.47,0.97C155.61,4.24,156.92,5.24,156.92,6.56z"/>
	<path class="st0" d="M216.12,8.34c-3.1,7.94-6.62,20.03-10.58,36.22c-3.6,14.64-5.35,22.97-5.31,24.91c-0.08,0.19,0,1.55,0.19,4.15
		c0.12,1.39-0.08,2.63-0.62,3.76c-0.58,1.43-1.39,2.25-2.4,2.44c-1.74,0.35-5.23-0.31-10.46-1.98c-5.23-1.67-8.25-3.14-9.03-4.38
		c-0.35-0.58-0.58-1.39-0.62-2.32c-0.08-1.2-0.15-2.01-0.27-2.44c-6.82-21.58-10.92-40.91-12.28-58.03c0-0.31-0.15-0.93-0.46-1.9
		c-0.19-0.74-0.23-1.36-0.19-1.9c0.31-2.09,1.16-3.37,2.6-3.87c0.74-0.23,3.22,0.31,7.52,1.7c4.53,1.43,7.05,2.67,7.52,3.68
		c0.23,0.58,0.23,1.86,0,3.76c-0.08,0.35-0.27,0.89-0.62,1.59c-0.35,0.7-0.5,1.28-0.46,1.74c0.89,6.28,1.74,11.82,2.52,16.58
		c1.9,11.47,3.41,18.29,4.49,20.46c1.01-5.58,2.83-12.67,5.38-21.35s4.38-15.88,5.38-21.69c0.04-1.12,0.31-2.67,0.81-4.57
		c0.66-1.43,1.63-2.36,2.94-2.79c0.97-0.31,3.22,0.19,6.74,1.51C212.75,5.17,215.15,6.72,216.12,8.34z"/>
	<path class="st0" d="M262.57,65.76c-0.19,1.01-0.7,2.09-1.55,3.29c-0.85,1.16-1.63,1.86-2.29,2.09c-0.19,0.08-0.5-0.04-0.97-0.31
		c-0.46-0.27-0.85-0.39-1.16-0.39c-0.12,0-0.23,0.04-0.35,0.08c-1.86,0.54-3.72,1.24-5.58,2.17c-4.42,2.01-8.48,4.65-12.2,7.79
		c-5.97-2.44-9.22-3.8-9.76-4.03c-3.72-1.63-5.58-2.83-5.58-3.6V5.4c0-0.43,0.7-1.01,2.09-1.78c1.39-0.77,2.44-1.12,3.1-1.08
		c0.74,0.08,2.17,0.54,4.3,1.39c2.17,0.85,3.91,1.32,5.31,1.32c1.78,0,4.11-0.81,6.97-2.4c2.63-1.55,4.26-2.21,4.92-1.98
		c1.43,0.46,3.56,2.05,6.43,4.73c2.83,2.67,4.38,4.57,4.61,5.69c0.12,0.54-0.43,1.47-1.67,2.79c-1.24,1.32-2.25,1.98-3.02,1.98
		c-0.66,0-1.12-0.08-1.43-0.27s-0.5-0.23-0.62-0.19c-2.17,0.46-4.15,1.05-6,1.7c-4.42,1.51-7.67,3.22-9.76,5.19v14.61
		c2.09-1.08,4.8-2.17,8.17-3.33c0.97-0.12,2.98,1.2,6.04,3.99c3.06,2.79,4.61,4.73,4.61,5.77c0,0.66-0.43,1.43-1.24,2.32
		c-0.85,0.89-1.63,1.47-2.44,1.7c-0.58,0-1.63,0.08-3.14,0.19c-2.29,0.43-6.28,2.32-12.01,5.73v9.41c1.78-1.08,4.22-2.36,7.32-3.8
		c3.1-1.43,4.96-2.21,5.69-2.21c0.85,0,2.94,1.32,6.31,3.91C261.06,63.36,262.69,65.02,262.57,65.76z"/>
	<path class="st0" d="M313.32,43.4c0.12,0.89,0.19,1.78,0.19,2.67c0,4.96-2.13,10.31-6.35,16.04c-3.41,4.61-7.59,8.72-12.55,12.36
		c-4.53,3.29-7.63,4.8-9.22,4.57c-1.78-0.23-4.96-1.59-9.49-3.99c-4.53-2.44-7.01-4.07-7.36-4.96c-0.12-0.23-0.19-0.5-0.19-0.81
		c0-0.35,0.12-0.81,0.31-1.39c0.19-0.58,0.31-1.01,0.31-1.32V8.46c0-0.97,1.32-1.43,3.95-1.43c1.2,0,2.25,0.12,3.14,0.35
		c2.83-1.78,6.35-3.41,10.62-4.8s7.94-2.09,11-2.09c1.78,0,3.18,0.27,4.18,0.77c0.97,0.5,1.9,1.39,2.75,2.63
		c1.08,1.74,1.82,2.83,2.25,3.22c0.12,0.12,1.12,0.93,2.94,2.44c1.08,0.89,1.74,1.86,2.05,2.87c0.23,0.74,0.35,1.51,0.35,2.32
		c0,4.73-3.14,9.88-9.41,15.42C309.14,35.07,312.66,39.45,313.32,43.4z M297.63,14.27c-0.12-0.23-0.46-0.35-0.97-0.35
		c-1.39,0-3.53,0.74-6.47,2.17c-2.94,1.43-4.92,2.83-5.93,4.11v9.34c3.84-3.06,7.13-6.16,9.92-9.34
		C296.93,17.02,298.1,15.05,297.63,14.27z M300.85,40.81c-1.55,0.08-4.18,0.81-7.9,2.25c-3.99,1.63-6.9,3.22-8.72,4.77v16.7
		c3.87-1.08,7.71-4.38,11.47-9.88C299.49,49.14,301.19,44.53,300.85,40.81z"/>
	<path class="st0" d="M351.71,78.39c-1.24,0.12-2.67-0.04-4.22-0.5c-1.55-0.46-3.1-0.93-4.57-1.39c-1.78-0.46-4.61-1.36-8.45-2.6
		c-4.77-2.09-8.41-6.2-10.85-12.36c-2.17-5.42-3.22-12.01-3.22-19.72c0-6.28,1.08-13.6,3.22-21.97C326.57,8.61,330.37,3,335.02,3
		c0.43,0,1.01,0.12,1.74,0.31c0.74,0.19,1.32,0.35,1.74,0.39c4.42-1.24,7.24-1.9,8.52-1.9c0.58,0,1.2,0.04,1.78,0.08
		c7.17,0.89,12.82,5.38,16.93,13.44c3.72,7.28,5.58,16,5.58,26.11c0,9.57-1.67,17.78-5.04,24.68
		C362.72,73.58,357.87,77.65,351.71,78.39z M350.09,12.64c-1.32-0.35-2.63,1.39-3.91,5.31c-1.28,3.87-2.6,5.81-3.91,5.81
		c-0.31,0-0.74-0.15-1.32-0.5c-0.58-0.31-1.05-0.5-1.39-0.58c-2.05,4.49-3.06,10.89-3.06,19.18c0,6.51,0.7,12.09,2.05,16.77
		c1.55,5.19,3.72,8.06,6.47,8.6c3.22,0.58,5.81-2.71,7.79-9.96c1.74-6.35,2.6-13.87,2.6-22.59c0-5.93-0.46-10.89-1.36-14.88
		C353.15,15.51,351.83,13.15,350.09,12.64z"/>
	<path class="st0" d="M408.2,78.39c-1.24,0.12-2.67-0.04-4.22-0.5c-1.55-0.46-3.1-0.93-4.57-1.39c-1.78-0.46-4.61-1.36-8.45-2.6
		c-4.77-2.09-8.41-6.2-10.85-12.36c-2.17-5.42-3.22-12.01-3.22-19.72c0-6.28,1.08-13.6,3.22-21.97C383.05,8.61,386.85,3,391.5,3
		c0.43,0,1.01,0.12,1.74,0.31c0.74,0.19,1.32,0.35,1.74,0.39c4.42-1.24,7.24-1.9,8.52-1.9c0.58,0,1.2,0.04,1.78,0.08
		c7.17,0.89,12.82,5.38,16.93,13.44c3.72,7.28,5.58,16,5.58,26.11c0,9.57-1.67,17.78-5.04,24.68
		C419.24,73.58,414.36,77.65,408.2,78.39z M406.57,12.64c-1.32-0.35-2.63,1.39-3.91,5.31c-1.28,3.87-2.6,5.81-3.91,5.81
		c-0.31,0-0.74-0.15-1.32-0.5c-0.58-0.31-1.05-0.5-1.39-0.58c-2.05,4.49-3.06,10.89-3.06,19.18c0,6.51,0.7,12.09,2.05,16.77
		c1.55,5.19,3.72,8.06,6.47,8.6c3.22,0.58,5.81-2.71,7.79-9.96c1.74-6.35,2.6-13.87,2.6-22.59c0-5.93-0.46-10.89-1.36-14.88
		C409.67,15.51,408.31,13.15,406.57,12.64z"/>
</g>
</svg>
